<?xml version="1.0" encoding="utf-8"?>
<!-- Generator: Adobe Illustrator 24.1.2, SVG Export Plug-In . SVG Version: 6.00 Build 0)  -->
<svg version="1.1" id="Livello_1" xmlns="http://www.w3.org/2000/svg" xmlns:xlink="http://www.w3.org/1999/xlink" x="0px" y="0px"
	 viewBox="0 0 491.6 568.1" style="enable-background:new 0 0 491.6 568.1;" xml:space="preserve">
<style type="text/css">
	.st0{clip-path:url(#SVGID_2_);}
	.st1{clip-path:url(#SVGID_4_);}
	.st2{clip-path:url(#SVGID_6_);}
	.st3{clip-path:url(#SVGID_8_);}
	.st4{clip-path:url(#SVGID_10_);}
	.st5{clip-path:url(#SVGID_12_);}
	.st6{clip-path:url(#SVGID_14_);fill:#F4A46E;}
	.st7{clip-path:url(#SVGID_16_);fill:#8600BD;}
	.st8{clip-path:url(#SVGID_18_);}
	.st9{opacity:0.45;clip-path:url(#SVGID_20_);}
	.st10{clip-path:url(#SVGID_22_);fill:#8600BD;}
	.st11{clip-path:url(#SVGID_24_);fill:#391988;}
	.st12{clip-path:url(#SVGID_26_);fill:#151732;}
	.st13{fill:#D37DB6;}
	.st14{clip-path:url(#SVGID_28_);fill:none;stroke:#000000;stroke-width:1.0074;stroke-miterlimit:10;}
	.st15{clip-path:url(#SVGID_30_);}
	.st16{fill:url(#SVGID_31_);}
	.st17{fill:#FFFFFF;}
	.st18{fill:none;}
	.st19{fill:#E5A0D1;}
	.st20{fill:#8600BD;}
	.st21{font-family:'Cantarell-Bold';}
	.st22{font-size:25px;}
</style>
<g id="ref">
	<g>
		<g>
			<g>
				<defs>
					<rect id="SVGID_1_" x="1789.3" y="-787.7" width="595.3" height="841.9"/>
				</defs>
				<clipPath id="SVGID_2_">
					<use xlink:href="#SVGID_1_"  style="overflow:visible;"/>
				</clipPath>
				<g class="st0">
					<g>
						<defs>
							<rect id="SVGID_3_" x="1789.3" y="-787.7" width="595.3" height="841.9"/>
						</defs>
						<clipPath id="SVGID_4_">
							<use xlink:href="#SVGID_3_"  style="overflow:visible;"/>
						</clipPath>
						<g class="st1">
							<g>
								<defs>
									<rect id="SVGID_5_" x="2037.1" y="-592" width="209.2" height="251.6"/>
								</defs>
								<clipPath id="SVGID_6_">
									<use xlink:href="#SVGID_5_"  style="overflow:visible;"/>
								</clipPath>
								<g class="st2">
								</g>
							</g>
						</g>
					</g>
					<g>
						<defs>
							<rect id="SVGID_7_" x="1789.3" y="-787.7" width="595.3" height="841.9"/>
						</defs>
						<clipPath id="SVGID_8_">
							<use xlink:href="#SVGID_7_"  style="overflow:visible;"/>
						</clipPath>
						<g class="st3">
							<g>
								<defs>
									<rect id="SVGID_9_" x="2036.3" y="-307.5" width="191.3" height="165.2"/>
								</defs>
								<clipPath id="SVGID_10_">
									<use xlink:href="#SVGID_9_"  style="overflow:visible;"/>
								</clipPath>
								<g class="st4">
									<g>
										<defs>
											<rect id="SVGID_11_" x="2036.3" y="-307.5" width="191.3" height="165.2"/>
										</defs>
										<clipPath id="SVGID_12_">
											<use xlink:href="#SVGID_11_"  style="overflow:visible;"/>
										</clipPath>
										<g class="st5">
										</g>
									</g>
								</g>
							</g>
						</g>
					</g>
					<g>
						<defs>
							<rect id="SVGID_13_" x="1789.3" y="-787.7" width="595.3" height="841.9"/>
						</defs>
						<clipPath id="SVGID_14_">
							<use xlink:href="#SVGID_13_"  style="overflow:visible;"/>
						</clipPath>
						<rect x="1928" y="-577.8" class="st6" width="69.2" height="69.2"/>
					</g>
					<g>
						<defs>
							<rect id="SVGID_15_" x="1789.3" y="-787.7" width="595.3" height="841.9"/>
						</defs>
						<clipPath id="SVGID_16_">
							<use xlink:href="#SVGID_15_"  style="overflow:visible;"/>
						</clipPath>
						<rect x="1927.3" y="-397.4" class="st7" width="69.2" height="69.2"/>
					</g>
					<g>
						<defs>
							<rect id="SVGID_17_" x="1789.3" y="-787.7" width="595.3" height="841.9"/>
						</defs>
						<clipPath id="SVGID_18_">
							<use xlink:href="#SVGID_17_"  style="overflow:visible;"/>
						</clipPath>
						<g class="st8">
							<g>
								<defs>
									<rect id="SVGID_19_" x="1789.3" y="-787.7" width="595.3" height="841.9"/>
								</defs>
								<clipPath id="SVGID_20_">
									<use xlink:href="#SVGID_19_"  style="overflow:visible;"/>
								</clipPath>
								<g class="st9">
									<g>
										<g>
											<defs>
												<rect id="SVGID_21_" x="1928" y="-486.9" width="69.2" height="69.2"/>
											</defs>
											<clipPath id="SVGID_22_">
												<use xlink:href="#SVGID_21_"  style="overflow:visible;"/>
											</clipPath>
											<rect x="1928" y="-486.9" class="st10" width="69.2" height="69.2"/>
										</g>
									</g>
								</g>
							</g>
						</g>
					</g>
					<g>
						<defs>
							<rect id="SVGID_23_" x="1789.3" y="-787.7" width="595.3" height="841.9"/>
						</defs>
						<clipPath id="SVGID_24_">
							<use xlink:href="#SVGID_23_"  style="overflow:visible;"/>
						</clipPath>
						<rect x="1928" y="-303" class="st11" width="69.2" height="69.2"/>
					</g>
					<g>
						<defs>
							<rect id="SVGID_25_" x="1789.3" y="-787.7" width="595.3" height="841.9"/>
						</defs>
						<clipPath id="SVGID_26_">
							<use xlink:href="#SVGID_25_"  style="overflow:visible;"/>
						</clipPath>
						<rect x="1928" y="-211.3" class="st12" width="69.2" height="69.2"/>
					</g>
				</g>
			</g>
		</g>
	</g>
	<path class="st13" d="M1886.9,634h-294.2c-3.9,0-7.1-3.2-7.1-7.1V205.7c0-3.9,3.2-7.1,7.1-7.1h294.2c3.9,0,7.1,3.2,7.1,7.1v421.2
		C1894,630.9,1890.8,634,1886.9,634z"/>
	<g>
		<g>
			<defs>
				<path id="SVGID_27_" d="M1880.8,624.1h-282.1c-2.3,0-4.1-1.9-4.1-4.1V240c0-2.3,1.9-4.1,4.1-4.1h282.1c2.3,0,4.1,1.9,4.1,4.1
					v379.9C1885,622.2,1883.1,624.1,1880.8,624.1z"/>
			</defs>
			<clipPath id="SVGID_28_">
				<use xlink:href="#SVGID_27_"  style="overflow:visible;"/>
			</clipPath>
			<path class="st14" d="M1880.8,624.1h-282.1c-2.3,0-4.1-1.9-4.1-4.1V240c0-2.3,1.9-4.1,4.1-4.1h282.1c2.3,0,4.1,1.9,4.1,4.1v379.9
				C1885,622.2,1883.1,624.1,1880.8,624.1z"/>
		</g>
		<g>
			<defs>
				<path id="SVGID_29_" d="M1880.8,624.1h-282.1c-2.3,0-4.1-1.9-4.1-4.1V240c0-2.3,1.9-4.1,4.1-4.1h282.1c2.3,0,4.1,1.9,4.1,4.1
					v379.9C1885,622.2,1883.1,624.1,1880.8,624.1z"/>
			</defs>
			<clipPath id="SVGID_30_">
				<use xlink:href="#SVGID_29_"  style="overflow:visible;"/>
			</clipPath>
			<g class="st15">
			</g>
		</g>
	</g>
	
		<linearGradient id="SVGID_31_" gradientUnits="userSpaceOnUse" x1="1738.7117" y1="80.9077" x2="1740.689" y2="-58.162" gradientTransform="matrix(1 0 0 -1 0 567.8898)">
		<stop  offset="0" style="stop-color:#FFFFFF;stop-opacity:0"/>
		<stop  offset="6.765836e-02" style="stop-color:#CFCEDF;stop-opacity:5.237123e-02"/>
		<stop  offset="0.1381" style="stop-color:#A5A2C2;stop-opacity:0.1069"/>
		<stop  offset="0.2141" style="stop-color:#807CA9;stop-opacity:0.1657"/>
		<stop  offset="0.2947" style="stop-color:#615C93;stop-opacity:0.2281"/>
		<stop  offset="0.3813" style="stop-color:#474182;stop-opacity:0.2951"/>
		<stop  offset="0.4761" style="stop-color:#332D75;stop-opacity:0.3685"/>
		<stop  offset="0.5833" style="stop-color:#261F6B;stop-opacity:0.4515"/>
		<stop  offset="0.7134" style="stop-color:#1D1766;stop-opacity:0.5522"/>
		<stop  offset="0.9302" style="stop-color:#1B1464;stop-opacity:0.72"/>
	</linearGradient>
	<path class="st16" d="M1596.8,489h285.8c1.3,0,2.4,1.1,2.4,2.4V624h-288.2c-1.3,0-2.4-1.1-2.4-2.4V491.4
		C1594.3,490.1,1595.4,489,1596.8,489z"/>
	<text transform="matrix(1 0 0 1 1615.4474 537.5035)" class="st17" style="font-family:'Cantarell-Regular'; font-size:12px;">Studentessa al 5 anno all’Accademia di Belle  </text>
	<text transform="matrix(1 0 0 1 1615.4474 551.9034)" class="st17" style="font-family:'Cantarell-Regular'; font-size:12px;">Arti. Ama il cibo sano, il suo cane e fare  </text>
	<text transform="matrix(1 0 0 1 1615.4474 566.3035)" class="st17" style="font-family:'Cantarell-Regular'; font-size:12px;">sport. Specializzata in Character Design.</text>
	<g>
		<g>
			<path class="st17" d="M1599,225.3c0,0-0.3-0.1-0.9-0.2c-0.6-0.1-1.1-0.3-1.6-0.5s-1-0.5-1.4-0.8l1.1-2c0.5,0.4,1,0.7,1.7,0.9
				c0.6,0.2,1.3,0.3,2,0.3c0.8,0,1.4-0.1,1.8-0.4c0.4-0.3,0.6-0.6,0.6-1.1l0,0c0-0.3-0.1-0.6-0.3-0.8c-0.2-0.2-0.4-0.3-0.7-0.4
				c-0.3-0.1-0.7-0.2-1.2-0.3l0,0l0,0h-0.2c-0.8-0.1-1.5-0.3-2.1-0.5s-1-0.5-1.4-1s-0.6-1.2-0.6-2.1l0,0c0-0.8,0.2-1.5,0.5-2.1
				c0.4-0.6,0.9-1,1.6-1.3s1.5-0.5,2.5-0.5c0.5,0,0.9,0.1,1.4,0.2c0.5,0.1,0.9,0.3,1.4,0.5s0.9,0.4,1.3,0.7l-1,2
				c-0.5-0.3-1-0.6-1.5-0.8s-1-0.3-1.5-0.3c-0.7,0-1.3,0.1-1.7,0.4c-0.4,0.2-0.6,0.6-0.6,1l0,0c0,0.4,0.1,0.7,0.3,0.9
				s0.5,0.4,0.8,0.5s0.7,0.2,1.3,0.3c0,0,0,0,0.1,0c0,0,0,0,0.1,0h0.1h0.1c0.8,0.2,1.5,0.3,2,0.6c0.5,0.2,1,0.6,1.3,1.1
				c0.4,0.5,0.5,1.2,0.5,2l0,0c0,0.8-0.2,1.5-0.6,2.1s-0.9,1-1.6,1.3s-1.6,0.5-2.6,0.5C1599.3,225.3,1599,225.3,1599,225.3z"/>
			<path class="st17" d="M1606.8,224.6c-0.5-0.5-0.7-1.2-0.7-2.1c0-0.9,0.3-1.6,0.8-2s1.3-0.7,2.4-0.7h2.3l0.1,1.8h-2.4
				c-0.4,0-0.6,0.1-0.8,0.2c-0.2,0.1-0.3,0.4-0.3,0.6c0,0.3,0.1,0.5,0.3,0.7s0.6,0.2,1,0.2c0.6,0,1.1-0.1,1.4-0.2s0.5-0.4,0.5-0.7
				l0.2,1.3c0,0.3-0.2,0.6-0.4,0.8c-0.3,0.2-0.6,0.4-1,0.5s-0.8,0.2-1.3,0.2C1608,225.3,1607.3,225,1606.8,224.6z M1611.5,219.4
				c0-0.4-0.1-0.7-0.4-1s-0.7-0.3-1.2-0.3c-0.3,0-0.7,0.1-1,0.2c-0.3,0.1-0.6,0.3-0.9,0.5l-1.5-1.4c0.4-0.4,0.8-0.7,1.4-1
				c0.6-0.2,1.2-0.3,2-0.3s1.5,0.1,2,0.4c0.6,0.3,1,0.6,1.3,1.1s0.4,1.1,0.4,1.8v5.8h-2.2L1611.5,219.4L1611.5,219.4z"/>
			<path class="st17" d="M1615.8,216.1h2.6v9h-2.6V216.1z M1620.4,218.4c-0.2-0.1-0.4-0.1-0.6-0.1c-0.5,0-0.9,0.2-1.1,0.5
				c-0.3,0.3-0.4,0.7-0.4,1.3l-0.2-2.3c0.2-0.5,0.6-1,1-1.3s0.8-0.4,1.3-0.4c0.4,0,0.7,0.1,1,0.2c0.3,0.1,0.6,0.3,0.8,0.5l-1.4,1.9
				C1620.7,218.5,1620.6,218.4,1620.4,218.4z"/>
			<path class="st17" d="M1623.5,224.6c-0.5-0.5-0.7-1.2-0.7-2.1c0-0.9,0.3-1.6,0.8-2s1.3-0.7,2.4-0.7h2.3l0.1,1.8h-2.4
				c-0.4,0-0.6,0.1-0.8,0.2c-0.2,0.1-0.3,0.4-0.3,0.6c0,0.3,0.1,0.5,0.3,0.7s0.6,0.2,1,0.2c0.6,0,1.1-0.1,1.4-0.2s0.5-0.4,0.5-0.7
				l0.2,1.3c0,0.3-0.2,0.6-0.4,0.8c-0.3,0.2-0.6,0.4-1,0.5s-0.8,0.2-1.3,0.2C1624.7,225.3,1624,225,1623.5,224.6z M1628.2,219.4
				c0-0.4-0.1-0.7-0.4-1s-0.7-0.3-1.2-0.3c-0.3,0-0.7,0.1-1,0.2c-0.3,0.1-0.6,0.3-0.9,0.5l-1.5-1.4c0.4-0.4,0.8-0.7,1.4-1
				c0.6-0.2,1.2-0.3,2-0.3s1.5,0.1,2,0.4c0.6,0.3,1,0.6,1.3,1.1s0.4,1.1,0.4,1.8v5.8h-2.2L1628.2,219.4L1628.2,219.4z"/>
			<path class="st17" d="M1632.5,212.5h2.4v12.6h-2.4V212.5z M1637.7,219.7c0-0.4-0.1-0.8-0.4-1s-0.6-0.4-1.1-0.4
				c-0.4,0-0.8,0.1-1,0.4c-0.2,0.2-0.4,0.6-0.4,1l-0.2-2c0.3-0.6,0.6-1,1-1.3s0.9-0.4,1.4-0.4c0.9,0,1.7,0.3,2.2,1s0.8,1.5,0.8,2.7
				v5.5h-2.4L1637.7,219.7L1637.7,219.7z"/>
			<path class="st17" d="M1647,212.5h2.4v12.6h-2.4V212.5z M1647.9,217.8h4.4c0.2,0,0.5-0.1,0.6-0.2c0.2-0.1,0.3-0.3,0.4-0.5
				s0.2-0.5,0.2-0.8s0-0.6-0.2-0.8s-0.2-0.4-0.4-0.5c-0.2-0.1-0.4-0.2-0.7-0.2h-4.4v-2.3h4.6c0.7,0,1.3,0.2,1.8,0.5s0.9,0.8,1.2,1.3
				c0.3,0.6,0.4,1.2,0.4,2s-0.1,1.4-0.4,2s-0.7,1-1.2,1.3s-1.1,0.5-1.8,0.5h-4.6L1647.9,217.8L1647.9,217.8z M1650.6,219.7l2.5-0.4
				l3.4,5.9h-2.9L1650.6,219.7z"/>
			<path class="st17" d="M1658.1,212.5h2.4v2.4h-2.4V212.5z M1658.1,216.1h2.4v9h-2.4V216.1z"/>
			<path class="st17" d="M1665,225.3c0,0-0.3-0.2-0.9-0.5s-1.1-0.8-1.4-1.4c-0.3-0.6-0.5-1.4-0.5-2.3v-1c0-0.9,0.2-1.6,0.5-2.2
				c0.3-0.6,0.8-1.1,1.4-1.4c0.6-0.3,1.3-0.5,2.2-0.5c0.5,0,1,0.1,1.4,0.2c0.4,0.1,0.8,0.3,1.2,0.5c0.3,0.2,0.6,0.5,0.9,0.8
				l-1.5,1.5c-0.2-0.2-0.5-0.4-0.8-0.5s-0.6-0.2-0.9-0.2c-0.6,0-1.1,0.2-1.4,0.5s-0.5,0.8-0.5,1.4v1c0,0.6,0.2,1.1,0.5,1.4
				c0.3,0.3,0.8,0.5,1.4,0.5c0.3,0,0.6-0.1,0.9-0.2c0.3-0.1,0.5-0.3,0.8-0.5l1.5,1.6c-0.2,0.3-0.5,0.6-0.9,0.8
				c-0.3,0.2-0.7,0.4-1.2,0.5c-0.4,0.1-0.9,0.2-1.4,0.2C1665.5,225.3,1665,225.3,1665,225.3z"/>
			<path class="st17" d="M1673.7,225.3c0,0-0.3-0.2-0.9-0.5s-1.1-0.8-1.4-1.4c-0.3-0.6-0.5-1.4-0.5-2.3v-1c0-0.9,0.2-1.6,0.5-2.2
				c0.3-0.6,0.8-1.1,1.4-1.4c0.6-0.3,1.3-0.5,2.2-0.5c0.5,0,1,0.1,1.4,0.2c0.4,0.1,0.8,0.3,1.2,0.5c0.3,0.2,0.6,0.5,0.9,0.8
				l-1.5,1.5c-0.2-0.2-0.5-0.4-0.8-0.5s-0.6-0.2-0.9-0.2c-0.6,0-1.1,0.2-1.4,0.5s-0.5,0.8-0.5,1.4v1c0,0.6,0.2,1.1,0.5,1.4
				c0.3,0.3,0.8,0.5,1.4,0.5c0.3,0,0.6-0.1,0.9-0.2c0.3-0.1,0.5-0.3,0.8-0.5l1.5,1.6c-0.2,0.3-0.5,0.6-0.9,0.8
				c-0.3,0.2-0.7,0.4-1.2,0.5c-0.4,0.1-0.9,0.2-1.4,0.2C1674.1,225.3,1673.7,225.3,1673.7,225.3z"/>
			<path class="st17" d="M1679.7,212.5h2.4v2.4h-2.4V212.5z M1679.7,216.1h2.4v9h-2.4V216.1z"/>
			<path class="st17" d="M1685.7,224.8c-0.6-0.3-1-0.8-1.3-1.3s-0.5-1.3-0.5-2.1v-1.5c0-0.8,0.2-1.5,0.5-2.1s0.7-1,1.3-1.3
				s1.3-0.5,2.1-0.5s1.5,0.2,2.1,0.5s1,0.7,1.3,1.3s0.5,1.3,0.5,2.1v1.5c0,0.8-0.2,1.5-0.5,2.1s-0.7,1-1.3,1.3
				c-0.6,0.3-1.3,0.5-2.1,0.5S1686.2,225.1,1685.7,224.8z M1688.9,222.6c0.3-0.3,0.4-0.7,0.4-1.2v-1.5c0-0.5-0.1-0.9-0.4-1.2
				s-0.6-0.4-1.1-0.4s-0.8,0.1-1.1,0.4c-0.3,0.3-0.4,0.7-0.4,1.2v1.5c0,0.5,0.1,0.9,0.4,1.2s0.6,0.4,1.1,0.4
				C1688.2,223,1688.6,222.8,1688.9,222.6z"/>
		</g>
	</g>
	<path class="st18" d="M1882.6,623.8h-285.7c-1.3,0-2.4-1.1-2.4-2.4V248.8c0-1.3,1.1-2.4,2.4-2.4h285.7c1.3,0,2.4,1.1,2.4,2.4v372.7
		C1885,622.8,1883.9,623.8,1882.6,623.8z"/>
	<g>
		<circle class="st19" cx="1627.9" cy="597.3" r="12.5"/>
		<circle class="st19" cx="1670" cy="597.3" r="12.5"/>
		<circle class="st19" cx="1710.2" cy="597.3" r="12.5"/>
	</g>
</g>
<g id="CARD">
	<g>
		<path d="M452.8,18.6c8,0,14.5,6.5,14.5,14.5V535c0,8-6.5,14.5-14.5,14.5h-414c-8,0-14.5-6.5-14.5-14.5V33.1
			c0-8,6.5-14.5,14.5-14.5L452.8,18.6 M452.8,18.3h-414c-8.2,0-14.8,6.6-14.8,14.8V535c0,8.2,6.6,14.8,14.8,14.8h414
			c8.2,0,14.8-6.6,14.8-14.8V33.1C467.6,24.9,461,18.3,452.8,18.3L452.8,18.3z"/>
	</g>
	<path class="st20" d="M24,495.2h443.6v38.5c0,8.9-7.2,16.1-16.1,16.1H40.1c-8.9,0-16.1-7.2-16.1-16.1C24,533.7,24,495.2,24,495.2z"
		/>
	<rect x="279" y="502.7" class="st18" width="166.4" height="21.2"/>
	<text transform="matrix(1 0 0 1 278.9985 523.8557)" class="st17 st21 st22">Sarah Riccio</text>
	
		<ellipse transform="matrix(3.327795e-02 -0.9994 0.9994 3.327795e-02 -452.1122 559.1835)" class="st17" cx="63" cy="513.3" rx="16.7" ry="16.7"/>
	<circle class="st17" cx="116.7" cy="513.3" r="16.7"/>
	<circle class="st17" cx="170.6" cy="513.3" r="16.7"/>
	<polygon class="st20" points="24,447.7 103.4,447.7 138,471.5 245.8,489.6 353.6,459.6 412.3,461.9 467.6,424.6 467.6,495.2 
		24,495.2 	"/>
</g>
</svg>
