<?xml version="1.0" encoding="utf-8"?>
<!-- Generator: Adobe Illustrator 24.1.2, SVG Export Plug-In . SVG Version: 6.00 Build 0)  -->
<svg version="1.1" id="Livello_1" xmlns="http://www.w3.org/2000/svg" xmlns:xlink="http://www.w3.org/1999/xlink" x="0px" y="0px"
	 viewBox="0 0 239.6 177.8" style="enable-background:new 0 0 239.6 177.8;" xml:space="preserve">
<style type="text/css">
	.st0{fill:#BD77CE;}
	.st1{fill:#814E9C;}
	.st2{fill:#DFADE7;}
	.st3{fill:#AD60BF;}
	.st4{fill:none;stroke:#89578C;stroke-width:1.5823;stroke-miterlimit:10;}
	.st5{fill:#8628BD;}
	.st6{fill:#F4A46E;}
	.st7{fill:#E8EBFB;}
</style>
<g>
	<g>
		<g>
			<path class="st0" d="M171,59.5v-5.5h-6.1v-6h-5.5v11.6h6v6h5l0.1,12.4h-5.3v11.2h-5.5l0,4.5l-35-0.1l0.2,8.1l0,0v5h-6.1l0.4,5.3
				h-5.9v-5.3h5.5v-5h-6v-6.5h6v-5.6h-5.9v-6.5h5.9v0h-5.6v-5.3h-11.7v-4.4l0-1.2H67v5.6l-5.8,0.3l0.1,5.8l11.8-0.4v6.2h-4.6v-6.2
				l-7.3,0.3v0.2h0.1v6.2h-0.1v5.2h0.1v6.2h-0.1l0.1,5.5h5.9l-0.1,5.9h0v10.9h11.6v-5.6h5.1v-5.3h6.1v5.6h6v5.9h5.5v11.7h-0.1v22.4
				h6.8v-16.6h5.5v-6.3H148v5.6h5.5v6.1h5.7v-23h-5.6v-16.9h5.5v-0.1h0.8v-5.6h5.5v-6.4h5.5V83.8h5.9l-0.1-24.2H171z M101.7,89.9
				h-4.6v-6.2h4.6V89.9z"/>
			<polygon class="st1" points="119.1,112.1 113.3,112.1 113.3,106.8 118.7,106.8 			"/>
			<polygon class="st2" points="101.3,124.2 101.3,135.9 84.8,135.9 84.8,130 78.7,130 78.7,118.1 83.7,118.1 83.7,112.8 
				89.9,112.8 89.9,118.4 95.8,118.4 95.8,124.2 			"/>
			<rect x="113.4" y="135.4" class="st3" width="34.6" height="6.3"/>
			<polygon class="st3" points="165,124.1 165,158.4 159.2,158.3 159.1,147.1 159.2,147.1 159.2,124.1 			"/>
			<rect x="153.6" y="107.2" class="st3" width="5.5" height="16.9"/>
			<rect x="159.9" y="101.5" class="st1" width="5.5" height="5.6"/>
			<polygon class="st1" points="182.3,59.5 182.4,83.8 176.7,83.8 176.7,95.1 170.8,95.1 170.8,101.4 165.3,101.4 165.3,95.1 
				170.8,95.1 170.8,83.8 176.7,83.8 176.6,59.5 			"/>
			<rect x="164.8" y="48.1" class="st3" width="6.1" height="6"/>
			<rect x="108" y="141.7" class="st3" width="5.5" height="5.9"/>
			<line class="st4" x1="108" y1="147.6" x2="107.9" y2="147.6"/>
			<polygon class="st3" points="84.8,130 84.8,136.4 73.2,136.4 73.2,130.2 67.1,130.2 67.1,123.7 78.7,123.7 78.7,130 			"/>
			<polygon class="st3" points="72.9,72.2 72.9,72.2 67,72.2 67,66.4 72.7,66.4 			"/>
			<polygon class="st3" points="78.9,60.7 78.9,66.2 72.7,66.4 72.7,60.7 			"/>
			<rect x="78.9" y="66.2" class="st3" width="5.8" height="6"/>
			<rect x="118.7" y="89.7" class="st3" width="5.8" height="5.6"/>
			<line class="st4" x1="124.5" y1="95.3" x2="124.5" y2="95.2"/>
			<polygon class="st3" points="101.4,72.2 95.6,72.2 95.6,66.4 101.2,66.4 			"/>
			<rect x="101.2" y="60.7" class="st3" width="6.1" height="5.7"/>
			<rect x="107.3" y="66.6" class="st3" width="5.7" height="11.2"/>
			<rect x="113.2" y="77.8" class="st3" width="5.4" height="5.3"/>
			<polygon class="st0" points="84.5,136.4 84.5,147.5 78.7,147.5 78.7,141.1 73.1,141.1 73.2,136.4 			"/>
			<polygon class="st1" points="101.2,135.9 101.2,141.3 84.5,141.3 84.5,136.4 84.8,136.4 84.8,135.9 			"/>
			<polygon class="st1" points="148.2,141 148.2,158.7 141.9,158.7 141.9,147.5 136.1,147.5 136.1,141.7 148,141.7 148,141 			"/>
			<polygon class="st1" points="78.9,66.2 78.9,72.2 72.9,72.2 72.7,66.4 			"/>
			<polygon class="st1" points="107.3,66.4 107.3,77.8 101.5,77.8 101.5,72.2 101.4,72.2 101.2,66.4 			"/>
			<rect x="84.5" y="141.3" class="st3" width="5.8" height="17.5"/>
			<polygon class="st5" points="85.6,90 85.6,96.1 79.5,96.1 79.5,95.7 79.4,95.7 79.4,90 			"/>
			<rect x="85.7" y="95.9" class="st5" width="6.2" height="6.2"/>
			<polygon class="st5" points="79.6,96.1 79.6,102 73.3,102 73.3,95.7 79.5,95.7 79.5,96.1 			"/>
			<rect x="112.8" y="83.1" class="st5" width="17.4" height="6.5"/>
			<rect x="55.2" y="84" class="st5" width="6.1" height="6.2"/>
			<rect x="55.2" y="95.3" class="st5" width="6.1" height="6.2"/>
			<rect x="118.7" y="101.8" class="st1" width="6.1" height="5"/>
			<rect x="171" y="54.1" class="st3" width="5.7" height="5.5"/>
			<polygon class="st1" points="73,112.2 67.1,112.2 67.1,106.9 72.6,106.9 			"/>
			<rect x="67" y="83.5" class="st5" width="6.2" height="6.2"/>
			<polygon class="st1" points="130,99.4 124.6,99.1 124.6,93.7 130.1,93.7 			"/>
			<rect x="112.8" y="95.2" class="st5" width="17.4" height="6.5"/>
			<rect x="96.2" y="83.8" class="st5" width="6.2" height="6.2"/>
		</g>
		<polygon class="st6" points="85.6,95.9 85.6,102.1 79.5,102.1 79.5,101.7 79.5,101.7 79.5,95.9 		"/>
	</g>
	<g>
		<g>
			<polygon class="st6" points="99.8,17.1 97.9,17.1 95.9,17.1 95.9,18.9 94,18.9 94,20.8 92,20.8 92.1,18.9 90.1,18.9 90.1,17 
				88.2,17 86.3,17 86.2,18.9 84.3,18.9 84.3,20.8 84.3,22.6 84.3,24.5 86.2,24.5 86.2,26.4 88.1,26.4 88.1,28.3 90.1,28.3 
				90.1,30.2 92,30.2 92,32.1 93.9,32.1 93.9,30.2 95.9,30.2 95.9,28.4 97.8,28.4 97.8,26.5 99.8,26.5 99.8,24.6 101.7,24.6 
				101.7,22.7 101.7,20.9 101.7,19 99.8,19 			"/>
			<polygon class="st7" points="101.7,19 101.7,20.9 101.7,22.7 101.7,24.6 103.6,24.6 103.6,22.8 103.7,20.9 103.7,19 			"/>
			<polygon class="st7" points="99.8,26.5 101.7,26.5 101.7,24.6 99.8,24.6 			"/>
			
				<rect x="99.8" y="17.1" transform="matrix(4.928555e-03 -1 1 4.928555e-03 82.2412 118.7139)" class="st7" width="1.9" height="1.9"/>
			<polygon class="st7" points="97.8,28.4 99.8,28.4 99.8,26.5 97.8,26.5 			"/>
			<polygon class="st7" points="99.8,17.1 99.8,15.2 97.9,15.2 95.9,15.2 95.9,17.1 97.9,17.1 			"/>
			<polygon class="st7" points="95.9,30.2 97.8,30.3 97.8,28.4 95.9,28.4 			"/>
			<polygon class="st7" points="95.9,17.1 94,17.1 94,18.9 95.9,18.9 			"/>
			
				<rect x="92" y="32.1" transform="matrix(5.545671e-03 -1 1 5.545671e-03 59.394 125.8198)" class="st7" width="1.9" height="1.9"/>
			
				<rect x="92.1" y="18.9" transform="matrix(4.032837e-03 -1 1 4.032837e-03 72.7742 112.8076)" class="st7" width="1.9" height="1.9"/>
			
				<rect x="90.1" y="30.2" transform="matrix(4.666326e-03 -1 1 4.666326e-03 59.4454 122.0389)" class="st7" width="1.9" height="1.9"/>
			
				<rect x="90.1" y="17" transform="matrix(4.433831e-03 -1 1 4.433831e-03 72.7096 108.985)" class="st7" width="1.9" height="1.9"/>
			
				<rect x="88.2" y="28.3" transform="matrix(5.164129e-03 -1 1 5.164129e-03 59.3801 118.2103)" class="st7" width="1.9" height="1.9"/>
			<polygon class="st7" points="90.1,17 90.1,15.1 88.2,15.1 86.3,15.1 86.3,17 88.2,17 			"/>
			
				<rect x="84.3" y="24.5" transform="matrix(5.330672e-03 -1 1 5.330672e-03 59.3184 110.5885)" class="st7" width="1.9" height="1.9"/>
			<polygon class="st7" points="86.3,17 84.3,17 84.3,18.9 86.2,18.9 			"/>
			<polygon class="st7" points="84.3,20.8 84.3,18.9 82.4,18.9 82.4,20.7 82.4,22.6 82.4,24.5 84.3,24.5 84.3,22.6 			"/>
			
				<rect x="86.2" y="26.4" transform="matrix(5.355809e-03 -1 1 5.355809e-03 59.3414 114.3948)" class="st7" width="1.9" height="1.9"/>
			<polygon class="st7" points="93.9,32.1 95.9,32.1 95.9,30.2 93.9,30.2 			"/>
		</g>
		<g>
			<polygon class="st0" points="152.7,19.3 152.7,17.4 150.7,17.4 148.8,17.4 148.8,19.3 146.9,19.2 146.9,21.1 144.9,21.1 
				144.9,19.2 143,19.2 143,17.3 141.1,17.3 139.1,17.3 139.1,19.2 137.2,19.2 137.2,21.1 137.2,23 137.2,24.8 139.1,24.9 
				139.1,26.7 141,26.7 141,28.6 143,28.6 142.9,30.5 144.9,30.5 144.9,32.4 146.8,32.4 146.8,30.5 148.8,30.6 148.8,28.7 
				150.7,28.7 150.7,26.8 152.6,26.8 152.6,24.9 154.6,24.9 154.6,23.1 154.6,21.2 154.6,19.3 			"/>
			<polygon class="st3" points="154.6,19.3 154.6,21.2 154.6,23.1 154.6,24.9 156.5,25 156.5,23.1 156.5,21.2 156.5,19.3 			"/>
			<polygon class="st3" points="152.6,26.8 154.6,26.8 154.6,24.9 152.6,24.9 			"/>
			
				<rect x="152.7" y="17.4" transform="matrix(5.330672e-03 -1 1 5.330672e-03 134.4819 171.8927)" class="st3" width="1.9" height="1.9"/>
			
				<rect x="150.7" y="26.8" transform="matrix(5.309201e-03 -1 1 5.309201e-03 123.1139 179.2658)" class="st3" width="1.9" height="1.9"/>
			<polygon class="st3" points="152.7,17.4 152.7,15.5 150.8,15.5 148.8,15.5 148.8,17.4 150.7,17.4 			"/>
			
				<rect x="148.8" y="28.7" transform="matrix(6.187120e-03 -1 1 6.187120e-03 119.1782 179.1568)" class="st3" width="1.9" height="1.9"/>
			
				<rect x="146.8" y="30.5" transform="matrix(5.771250e-03 -1 1 5.771250e-03 115.437 179.092)" class="st3" width="1.9" height="1.9"/>
			<polygon class="st3" points="148.8,17.4 146.9,17.4 146.9,19.2 148.8,19.3 			"/>
			<polygon class="st3" points="144.9,34.3 146.8,34.3 146.8,32.4 144.9,32.4 			"/>
			
				<rect x="145" y="19.2" transform="matrix(4.506747e-03 -1 1 4.506747e-03 125.0615 165.9908)" class="st3" width="1.9" height="1.9"/>
			
				<rect x="143" y="30.5" transform="matrix(4.736766e-03 -1 1 4.736766e-03 111.7574 175.2291)" class="st3" width="1.9" height="1.9"/>
			<polygon class="st3" points="144.9,19.2 144.9,17.4 143,17.3 143,19.2 			"/>
			
				<rect x="141" y="28.6" transform="matrix(5.423542e-03 -1 1 5.423542e-03 111.6402 171.3946)" class="st3" width="1.9" height="1.9"/>
			<polygon class="st3" points="143,17.3 143,15.5 141.1,15.4 139.1,15.4 139.1,17.3 141.1,17.3 			"/>
			
				<rect x="139.1" y="26.7" transform="matrix(5.309523e-03 -1 1 5.309523e-03 111.6345 167.5886)" class="st3" width="1.9" height="1.9"/>
			<polygon class="st3" points="137.2,24.8 137.2,26.7 139.1,26.7 139.1,24.9 			"/>
			
				<rect x="137.2" y="17.3" transform="matrix(5.717992e-03 -1 1 5.717992e-03 119.1229 156.3148)" class="st3" width="1.9" height="1.9"/>
			<polygon class="st3" points="137.2,21.1 137.2,19.2 135.3,19.2 135.3,21.1 135.2,22.9 135.2,24.8 137.2,24.8 137.2,23 			"/>
		</g>
		<g>
			<polygon class="st6" points="126.2,17.2 124.3,17.2 122.4,17.2 122.4,19.1 120.4,19.1 120.4,21 118.5,21 118.5,19.1 116.6,19.1 
				116.6,17.2 114.6,17.2 112.7,17.2 112.7,19 110.8,19 110.7,20.9 110.7,22.8 110.7,24.7 112.7,24.7 112.6,26.6 114.6,26.6 
				114.6,28.5 116.5,28.5 116.5,30.4 118.4,30.4 118.4,32.3 120.4,32.3 120.4,30.4 122.3,30.4 122.3,28.5 124.3,28.5 124.3,26.6 
				126.2,26.7 126.2,24.8 128.1,24.8 128.2,22.9 128.2,21 128.2,19.1 126.2,19.1 			"/>
			<polygon class="st7" points="110.7,20.9 110.8,19 108.8,19 108.8,20.9 108.8,22.8 108.8,24.7 110.7,24.7 110.7,22.8 			"/>
			<polygon class="st7" points="126.2,17.2 126.3,15.4 124.3,15.3 122.4,15.3 122.4,17.2 124.3,17.2 			"/>
			
				<rect x="120.5" y="17.2" transform="matrix(5.374711e-03 -1 1 5.374711e-03 102.5963 139.4595)" class="st7" width="1.9" height="1.9"/>
			
				<rect x="116.6" y="17.2" transform="matrix(4.882054e-03 -1 1 4.882054e-03 98.8213 135.5696)" class="st7" width="1.9" height="1.9"/>
			<polygon class="st7" points="116.6,17.2 116.6,15.3 114.6,15.3 112.7,15.3 112.7,17.2 114.6,17.2 			"/>
			
				<rect x="110.8" y="17.1" transform="matrix(5.300105e-03 -1 1 5.300105e-03 93.0353 129.7262)" class="st7" width="1.9" height="1.9"/>
			<polygon class="st7" points="128.2,19.1 128.2,21 128.2,22.9 128.1,24.8 130.1,24.8 130.1,22.9 130.1,21 130.1,19.1 			"/>
			<polygon class="st7" points="126.2,26.7 128.1,26.7 128.1,24.8 126.2,24.8 			"/>
			
				<rect x="126.3" y="17.2" transform="matrix(4.882054e-03 -1 1 4.882054e-03 108.3982 145.3084)" class="st7" width="1.9" height="1.9"/>
			<polygon class="st7" points="124.3,28.5 126.2,28.5 126.2,26.7 124.3,26.6 			"/>
			
				<rect x="122.3" y="28.5" transform="matrix(5.736035e-03 -1 1 5.736035e-03 93.1157 152.5779)" class="st7" width="1.9" height="1.9"/>
			
				<rect x="120.4" y="30.4" transform="matrix(5.128290e-03 -1 1 5.128290e-03 89.3823 152.5154)" class="st7" width="1.9" height="1.9"/>
			
				<rect x="118.5" y="32.2" transform="matrix(5.725600e-03 -1 1 5.725600e-03 85.5068 152.4067)" class="st7" width="1.9" height="1.9"/>
			
				<rect x="118.5" y="19.1" transform="matrix(4.433831e-03 -1 1 4.433831e-03 98.9015 139.3928)" class="st7" width="1.9" height="1.9"/>
			
				<rect x="116.5" y="30.3" transform="matrix(4.478635e-03 -1 1 4.478635e-03 85.6249 148.6382)" class="st7" width="1.9" height="1.9"/>
			
				<rect x="114.6" y="28.5" transform="matrix(4.904585e-03 -1 1 4.904585e-03 85.5588 144.8146)" class="st7" width="1.9" height="1.9"/>
			<polygon class="st7" points="112.6,26.6 112.6,28.5 114.6,28.5 114.6,26.6 			"/>
			<polygon class="st7" points="110.7,24.7 110.7,26.6 112.6,26.6 112.7,24.7 			"/>
		</g>
	</g>
</g>
</svg>
