<?xml version="1.0" encoding="utf-8"?>
<!-- Generator: Adobe Illustrator 24.1.2, SVG Export Plug-In . SVG Version: 6.00 Build 0)  -->
<svg version="1.1" id="Livello_1" xmlns="http://www.w3.org/2000/svg" xmlns:xlink="http://www.w3.org/1999/xlink" x="0px" y="0px"
	 viewBox="0 0 239.6 177.8" style="enable-background:new 0 0 239.6 177.8;" xml:space="preserve">
<style type="text/css">
	.st0{fill:#DFADE7;}
	.st1{fill:#814E9C;}
	.st2{fill:#FFDFFF;}
	.st3{opacity:0.53;fill:#814E9C;}
	.st4{fill:#C452B4;}
</style>
<path class="st0" d="M42.3,48.3H6.9c-2,0-3.7-1.6-3.7-3.7V9.3c0-2,1.6-3.7,3.7-3.7h35.3c2,0,3.7,1.6,3.7,3.7v35.3
	C45.9,46.6,44.3,48.3,42.3,48.3z"/>
<g>
	<path class="st1" d="M15.9,17.1h4.1l6.2,17.4h-3.9l-1.1-3.6h-6.4l-1.2,3.6H9.7L15.9,17.1z M15.7,27.9h4.5L18,21.1L15.7,27.9z"/>
	<path class="st1" d="M33.3,26.7c0.6-0.1,1.1-0.2,1.3-0.3c0.5-0.2,0.7-0.5,0.7-1c0-0.5-0.2-0.9-0.6-1.1c-0.4-0.2-0.9-0.3-1.6-0.3
		c-0.8,0-1.4,0.2-1.7,0.6c-0.2,0.3-0.4,0.7-0.5,1.2h-3.2c0.1-1.1,0.4-2,0.9-2.8c0.9-1.1,2.4-1.7,4.6-1.7c1.4,0,2.7,0.3,3.8,0.8
		c1.1,0.6,1.6,1.6,1.6,3.2v5.9c0,0.4,0,0.9,0,1.5c0,0.4,0.1,0.7,0.2,0.9c0.1,0.2,0.3,0.3,0.5,0.4v0.5h-3.7c-0.1-0.3-0.2-0.5-0.2-0.7
		c0-0.2-0.1-0.5-0.1-0.8c-0.5,0.5-1,0.9-1.6,1.3c-0.7,0.4-1.6,0.6-2.5,0.6c-1.2,0-2.1-0.3-2.9-1c-0.8-0.7-1.1-1.6-1.1-2.8
		c0-1.6,0.6-2.7,1.8-3.4c0.7-0.4,1.7-0.7,3-0.8L33.3,26.7z M35.3,28.2c-0.2,0.1-0.4,0.2-0.7,0.3c-0.2,0.1-0.5,0.2-0.9,0.2L33,28.9
		c-0.7,0.1-1.2,0.3-1.5,0.5c-0.5,0.3-0.8,0.8-0.8,1.4c0,0.6,0.2,1,0.5,1.2c0.3,0.3,0.7,0.4,1.2,0.4c0.7,0,1.4-0.2,2-0.6
		c0.6-0.4,0.9-1.2,1-2.3V28.2z"/>
</g>
<path class="st2" d="M230.7,174h-87.3c-2.6,0-4.7-2.1-4.7-4.7V7.9c0-2.6,2.1-4.7,4.7-4.7h87.3c2.6,0,4.7,2.1,4.7,4.7v161.4
	C235.4,171.9,233.3,174,230.7,174z"/>
<path class="st0" d="M221.5,56.2h-66.3c-1.5,0-2.8-1.2-2.8-2.8v-6.8c0-1.5,1.2-2.8,2.8-2.8h66.3c1.5,0,2.8,1.2,2.8,2.8v6.8
	C224.3,55,223,56.2,221.5,56.2z"/>
<rect x="150.6" y="80.5" class="st0" width="29.3" height="6.6"/>
<path class="st0" d="M77,25.9H62.3c-0.6,0-1-0.5-1-1V10.1c0-0.6,0.5-1,1-1H77c0.6,0,1,0.5,1,1v14.7C78.1,25.5,77.6,25.9,77,25.9z"/>
<path class="st0" d="M105.2,25.9H90.5c-0.6,0-1-0.5-1-1V10.1c0-0.6,0.5-1,1-1h14.7c0.6,0,1,0.5,1,1v14.7
	C106.3,25.4,105.8,25.9,105.2,25.9z"/>
<g>
	<path class="st1" d="M65.3,16.9l8-3.1v1.9l-5.7,2l5.7,2v1.9l-8-3.1V16.9z"/>
</g>
<g>
	<path class="st1" d="M102.7,18.5l-8,3.1v-1.9l5.7-2l-5.7-2v-1.9l8,3.1V18.5z"/>
</g>
<g>
	<path class="st0" d="M168.4,114.3h-17.1c-0.7,0-1.3-0.6-1.3-1.3V95.9c0-0.7,0.6-1.3,1.3-1.3h17.1c0.7,0,1.3,0.6,1.3,1.3v17.1
		C169.7,113.8,169.1,114.3,168.4,114.3z"/>
	<path class="st0" d="M195.4,114.3h-17.1c-0.7,0-1.3-0.6-1.3-1.3V95.9c0-0.7,0.6-1.3,1.3-1.3h17.1c0.7,0,1.3,0.6,1.3,1.3v17.1
		C196.7,113.8,196.1,114.3,195.4,114.3z"/>
	<path class="st0" d="M222.8,114.3h-17.1c-0.7,0-1.3-0.6-1.3-1.3V95.9c0-0.7,0.6-1.3,1.3-1.3h17.1c0.7,0,1.3,0.6,1.3,1.3v17.1
		C224,113.8,223.5,114.3,222.8,114.3z"/>
	<path class="st0" d="M168.4,141.1h-17.1c-0.7,0-1.3-0.6-1.3-1.3v-17.1c0-0.7,0.6-1.3,1.3-1.3h17.1c0.7,0,1.3,0.6,1.3,1.3v17.1
		C169.7,140.6,169.1,141.1,168.4,141.1z"/>
	<path class="st0" d="M195.4,141.1h-17.1c-0.7,0-1.3-0.6-1.3-1.3v-17.1c0-0.7,0.6-1.3,1.3-1.3h17.1c0.7,0,1.3,0.6,1.3,1.3v17.1
		C196.7,140.6,196.1,141.1,195.4,141.1z"/>
	<path class="st0" d="M222.8,141.1h-17.1c-0.7,0-1.3-0.6-1.3-1.3v-17.1c0-0.7,0.6-1.3,1.3-1.3h17.1c0.7,0,1.3,0.6,1.3,1.3v17.1
		C224,140.6,223.5,141.1,222.8,141.1z"/>
	<path class="st0" d="M168.4,167.5h-17.1c-0.7,0-1.3-0.6-1.3-1.3v-17.1c0-0.7,0.6-1.3,1.3-1.3h17.1c0.7,0,1.3,0.6,1.3,1.3v17.1
		C169.7,167,169.1,167.5,168.4,167.5z"/>
	<path class="st0" d="M195.4,167.5h-17.1c-0.7,0-1.3-0.6-1.3-1.3v-17.1c0-0.7,0.6-1.3,1.3-1.3h17.1c0.7,0,1.3,0.6,1.3,1.3v17.1
		C196.7,167,196.1,167.5,195.4,167.5z"/>
</g>
<g>
	<path class="st1" d="M152.2,21.3l4.2-2.2v0.6l-3.5,1.8v0l3.5,1.8V24l-4.2-2.2V21.3z"/>
</g>
<g>
	<path class="st1" d="M156,36h0.5v3.5h2v0.5H156V36z"/>
	<path class="st1" d="M161.2,37.4c0.3,0.3,0.4,0.6,0.4,1.1c0,0.5-0.1,0.9-0.3,1.2c-0.2,0.3-0.6,0.5-1.1,0.5c-0.4,0-0.7-0.1-1-0.4
		c-0.2-0.3-0.4-0.6-0.4-1.1c0-0.5,0.1-0.9,0.4-1.2c0.2-0.3,0.6-0.4,1-0.4C160.6,37,160.9,37.2,161.2,37.4z M160.9,39.4
		c0.1-0.2,0.2-0.5,0.2-0.8c0-0.3,0-0.5-0.1-0.7c-0.1-0.3-0.4-0.4-0.7-0.4c-0.3,0-0.5,0.1-0.7,0.3c-0.1,0.2-0.2,0.5-0.2,0.8
		c0,0.3,0.1,0.6,0.2,0.8c0.1,0.2,0.4,0.3,0.6,0.3C160.5,39.7,160.8,39.6,160.9,39.4z"/>
	<path class="st1" d="M162.2,37.1h0.5v0.5c0-0.1,0.1-0.2,0.3-0.4c0.2-0.1,0.3-0.2,0.5-0.2c0,0,0,0,0,0c0,0,0.1,0,0.1,0v0.5
		c0,0-0.1,0-0.1,0s-0.1,0-0.1,0c-0.2,0-0.4,0.1-0.6,0.2s-0.2,0.3-0.2,0.6v1.7h-0.5V37.1z"/>
	<path class="st1" d="M165.9,37.2c0.2,0.1,0.3,0.2,0.4,0.4c0.1,0.1,0.2,0.3,0.2,0.5c0,0.1,0,0.4,0,0.6h-2.1c0,0.3,0.1,0.5,0.2,0.7
		c0.1,0.2,0.3,0.3,0.6,0.3c0.3,0,0.5-0.1,0.6-0.3c0.1-0.1,0.1-0.2,0.2-0.3h0.5c0,0.1-0.1,0.2-0.1,0.4c-0.1,0.1-0.2,0.2-0.2,0.3
		c-0.1,0.1-0.3,0.2-0.6,0.3c-0.1,0-0.3,0-0.4,0c-0.4,0-0.7-0.1-0.9-0.4s-0.4-0.6-0.4-1.1c0-0.5,0.1-0.9,0.4-1.1
		c0.3-0.3,0.6-0.4,1-0.4C165.5,37.1,165.7,37.1,165.9,37.2z M166,38.4c0-0.2-0.1-0.4-0.1-0.5c-0.1-0.2-0.4-0.4-0.7-0.4
		c-0.2,0-0.4,0.1-0.6,0.2c-0.2,0.2-0.2,0.4-0.2,0.6H166z"/>
	<path class="st1" d="M167.2,37.1h0.5v0.4c0.1-0.1,0.2-0.3,0.3-0.3c0.2-0.1,0.3-0.2,0.6-0.2c0.2,0,0.4,0.1,0.6,0.2
		c0.1,0.1,0.2,0.2,0.2,0.3c0.1-0.2,0.2-0.3,0.4-0.4c0.1-0.1,0.3-0.1,0.5-0.1c0.4,0,0.7,0.1,0.8,0.4c0.1,0.2,0.1,0.4,0.1,0.6v2h-0.5
		v-2c0-0.2,0-0.3-0.1-0.4c-0.1-0.1-0.2-0.1-0.4-0.1c-0.2,0-0.4,0.1-0.5,0.2c-0.1,0.1-0.2,0.3-0.2,0.6v1.7h-0.5v-1.9
		c0-0.2,0-0.3-0.1-0.4c-0.1-0.1-0.2-0.2-0.4-0.2c-0.2,0-0.4,0.1-0.5,0.2c-0.2,0.1-0.2,0.4-0.2,0.8v1.6h-0.5V37.1z"/>
	<path class="st1" d="M173.6,36h0.6v4h-0.6V36z"/>
	<path class="st1" d="M175.3,39.1c0,0.2,0.1,0.3,0.1,0.4c0.1,0.2,0.3,0.2,0.7,0.2c0.2,0,0.4,0,0.5-0.1c0.1-0.1,0.2-0.2,0.2-0.4
		c0-0.1-0.1-0.2-0.2-0.3c-0.1,0-0.2-0.1-0.4-0.1l-0.4-0.1c-0.3-0.1-0.4-0.1-0.6-0.2c-0.2-0.1-0.3-0.3-0.3-0.6c0-0.3,0.1-0.5,0.3-0.7
		c0.2-0.2,0.5-0.3,0.8-0.3c0.4,0,0.8,0.1,1,0.4c0.1,0.2,0.2,0.3,0.2,0.5h-0.5c0-0.1-0.1-0.2-0.1-0.3c-0.1-0.1-0.3-0.2-0.6-0.2
		c-0.2,0-0.3,0-0.4,0.1c-0.1,0.1-0.1,0.2-0.1,0.3c0,0.1,0.1,0.2,0.2,0.3c0.1,0,0.2,0.1,0.3,0.1l0.3,0.1c0.4,0.1,0.6,0.2,0.7,0.2
		c0.2,0.1,0.3,0.3,0.3,0.6c0,0.3-0.1,0.5-0.3,0.7c-0.2,0.2-0.5,0.3-0.9,0.3c-0.4,0-0.8-0.1-0.9-0.3c-0.2-0.2-0.3-0.4-0.3-0.7H175.3z
		"/>
	<path class="st1" d="M177.7,37.1h0.5v0.4c0.1-0.1,0.2-0.2,0.3-0.3c0.2-0.1,0.4-0.2,0.6-0.2c0.3,0,0.6,0.1,0.8,0.4
		c0.2,0.3,0.3,0.6,0.3,1.1c0,0.6-0.2,1.1-0.5,1.4c-0.2,0.2-0.5,0.3-0.7,0.3c-0.2,0-0.4,0-0.6-0.1c-0.1-0.1-0.2-0.1-0.3-0.3v1.5h-0.5
		V37.1z M179.6,39.4c0.2-0.2,0.2-0.5,0.2-0.9c0-0.2,0-0.4-0.1-0.6c-0.1-0.3-0.4-0.5-0.7-0.5c-0.3,0-0.6,0.2-0.7,0.5
		c-0.1,0.2-0.1,0.4-0.1,0.7c0,0.2,0,0.4,0.1,0.6c0.1,0.3,0.4,0.5,0.7,0.5C179.2,39.7,179.4,39.6,179.6,39.4z"/>
	<path class="st1" d="M181.4,37.1v1.9c0,0.1,0,0.3,0.1,0.4c0.1,0.2,0.2,0.3,0.5,0.3c0.3,0,0.6-0.2,0.7-0.5c0.1-0.2,0.1-0.4,0.1-0.7
		v-1.4h0.5v2.9h-0.5l0-0.4c-0.1,0.1-0.1,0.2-0.2,0.3c-0.2,0.2-0.4,0.2-0.7,0.2c-0.4,0-0.7-0.1-0.8-0.4c-0.1-0.2-0.1-0.4-0.1-0.6v-2
		H181.4z"/>
	<path class="st1" d="M184,37.1h0.5v0.4c0.1-0.1,0.2-0.3,0.3-0.3c0.2-0.1,0.3-0.2,0.6-0.2c0.2,0,0.4,0.1,0.6,0.2
		c0.1,0.1,0.2,0.2,0.2,0.3c0.1-0.2,0.2-0.3,0.4-0.4c0.1-0.1,0.3-0.1,0.5-0.1c0.4,0,0.7,0.1,0.8,0.4c0.1,0.2,0.1,0.4,0.1,0.6v2h-0.5
		v-2c0-0.2,0-0.3-0.1-0.4c-0.1-0.1-0.2-0.1-0.4-0.1c-0.2,0-0.4,0.1-0.5,0.2c-0.1,0.1-0.2,0.3-0.2,0.6v1.7h-0.5v-1.9
		c0-0.2,0-0.3-0.1-0.4c-0.1-0.1-0.2-0.2-0.4-0.2c-0.2,0-0.4,0.1-0.5,0.2c-0.2,0.1-0.2,0.4-0.2,0.8v1.6H184V37.1z"/>
</g>
<path class="st3" d="M44.5,57.8H7.2c-2,0-3.7,1.6-3.7,3.7v36.9c0,2,1.6,3.7,3.7,3.7h37.2c2,0,3.7-1.6,3.7-3.7V61.5
	C48.1,59.5,46.5,57.8,44.5,57.8z"/>
<path class="st0" d="M42.5,48.1H7.2c-2,0-3.7-1.6-3.7-3.7V9.1c0-2,1.6-3.7,3.7-3.7h35.3c2,0,3.7,1.6,3.7,3.7v35.3
	C46.2,46.5,44.6,48.1,42.5,48.1z"/>
<g>
	<path class="st1" d="M16.2,16.9h4.1l6.2,17.4h-3.9l-1.1-3.6H15l-1.2,3.6H10L16.2,16.9z M16,27.8h4.5l-2.2-6.8L16,27.8z"/>
	<path class="st1" d="M33.6,26.5c0.6-0.1,1.1-0.2,1.3-0.3c0.5-0.2,0.7-0.5,0.7-1c0-0.5-0.2-0.9-0.6-1.1c-0.4-0.2-0.9-0.3-1.6-0.3
		c-0.8,0-1.4,0.2-1.7,0.6c-0.2,0.3-0.4,0.7-0.5,1.2H28c0.1-1.1,0.4-2,0.9-2.8c0.9-1.1,2.4-1.7,4.6-1.7c1.4,0,2.7,0.3,3.8,0.8
		c1.1,0.6,1.6,1.6,1.6,3.2v5.9c0,0.4,0,0.9,0,1.5c0,0.4,0.1,0.7,0.2,0.9c0.1,0.2,0.3,0.3,0.5,0.4v0.5H36c-0.1-0.3-0.2-0.5-0.2-0.7
		c0-0.2-0.1-0.5-0.1-0.8c-0.5,0.5-1,0.9-1.6,1.3c-0.7,0.4-1.6,0.6-2.5,0.6c-1.2,0-2.1-0.3-2.9-1c-0.8-0.7-1.1-1.6-1.1-2.8
		c0-1.6,0.6-2.7,1.8-3.4c0.7-0.4,1.7-0.7,3-0.8L33.6,26.5z M35.6,28.1c-0.2,0.1-0.4,0.2-0.7,0.3c-0.2,0.1-0.5,0.2-0.9,0.2l-0.8,0.1
		c-0.7,0.1-1.2,0.3-1.5,0.5c-0.5,0.3-0.8,0.8-0.8,1.4c0,0.6,0.2,1,0.5,1.2c0.3,0.3,0.7,0.4,1.2,0.4c0.7,0,1.4-0.2,2-0.6
		c0.6-0.4,0.9-1.2,1-2.3V28.1z"/>
</g>
<path class="st2" d="M231,173.8h-87.3c-2.6,0-4.7-2.1-4.7-4.7V7.7c0-2.6,2.1-4.7,4.7-4.7H231c2.6,0,4.7,2.1,4.7,4.7v161.4
	C235.7,171.7,233.6,173.8,231,173.8z"/>
<path class="st0" d="M221.8,56h-66.3c-1.5,0-2.8-1.2-2.8-2.8v-6.8c0-1.5,1.2-2.8,2.8-2.8h66.3c1.5,0,2.8,1.2,2.8,2.8v6.8
	C224.6,54.8,223.3,56,221.8,56z"/>
<rect x="150.9" y="80.3" class="st0" width="29.3" height="6.6"/>
<path class="st0" d="M77.3,25.8H62.6c-0.6,0-1-0.5-1-1V10c0-0.6,0.5-1,1-1h14.7c0.6,0,1,0.5,1,1v14.7C78.4,25.3,77.9,25.8,77.3,25.8
	z"/>
<path class="st0" d="M105.5,25.7H90.8c-0.6,0-1-0.5-1-1V9.9c0-0.6,0.5-1,1-1h14.7c0.6,0,1,0.5,1,1v14.7
	C106.5,25.2,106.1,25.7,105.5,25.7z"/>
<g>
	<path class="st1" d="M65.6,16.7l8-3.1v1.9l-5.7,2l5.7,2v1.9l-8-3.1V16.7z"/>
</g>
<g>
	<path class="st1" d="M103,18.4l-8,3.1v-1.9l5.7-2l-5.7-2v-1.9l8,3.1V18.4z"/>
</g>
<g>
	<path class="st1" d="M151.4,20.6l8-3.1v1.9l-5.7,2l5.7,2v1.9l-8-3.1V20.6z"/>
</g>
<g>
	<path class="st0" d="M169.5,113.3h-16.2c-0.7,0-1.3-0.6-1.3-1.3V95.8c0-0.7,0.6-1.3,1.3-1.3h16.2c0.7,0,1.3,0.6,1.3,1.3V112
		C170.8,112.7,170.2,113.3,169.5,113.3z"/>
	<path class="st0" d="M195.3,113.3H179c-0.7,0-1.3-0.6-1.3-1.3V95.8c0-0.7,0.6-1.3,1.3-1.3h16.2c0.7,0,1.3,0.6,1.3,1.3V112
		C196.5,112.7,196,113.3,195.3,113.3z"/>
	<path class="st0" d="M221.4,113.3h-16.2c-0.7,0-1.3-0.6-1.3-1.3V95.8c0-0.7,0.6-1.3,1.3-1.3h16.2c0.7,0,1.3,0.6,1.3,1.3V112
		C222.6,112.7,222.1,113.3,221.4,113.3z"/>
	<path class="st0" d="M169.5,138.8h-16.2c-0.7,0-1.3-0.6-1.3-1.3v-16.2c0-0.7,0.6-1.3,1.3-1.3h16.2c0.7,0,1.3,0.6,1.3,1.3v16.2
		C170.8,138.3,170.2,138.8,169.5,138.8z"/>
	<path class="st0" d="M195.3,138.8H179c-0.7,0-1.3-0.6-1.3-1.3v-16.2c0-0.7,0.6-1.3,1.3-1.3h16.2c0.7,0,1.3,0.6,1.3,1.3v16.2
		C196.5,138.3,196,138.8,195.3,138.8z"/>
	<path class="st0" d="M221.4,138.8h-16.2c-0.7,0-1.3-0.6-1.3-1.3v-16.2c0-0.7,0.6-1.3,1.3-1.3h16.2c0.7,0,1.3,0.6,1.3,1.3v16.2
		C222.6,138.3,222.1,138.8,221.4,138.8z"/>
	<path class="st0" d="M169.5,164h-16.2c-0.7,0-1.3-0.6-1.3-1.3v-16.2c0-0.7,0.6-1.3,1.3-1.3h16.2c0.7,0,1.3,0.6,1.3,1.3v16.2
		C170.8,163.5,170.2,164,169.5,164z"/>
	<path class="st0" d="M195.3,164H179c-0.7,0-1.3-0.6-1.3-1.3v-16.2c0-0.7,0.6-1.3,1.3-1.3h16.2c0.7,0,1.3,0.6,1.3,1.3v16.2
		C196.5,163.5,196,164,195.3,164z"/>
</g>
<path class="st0" d="M42.6,100.4H7.3c-2,0-3.7-1.6-3.7-3.7V61.4c0-2,1.6-3.7,3.7-3.7h35.3c2,0,3.7,1.6,3.7,3.7v35.3
	C46.3,98.7,44.7,100.4,42.6,100.4z"/>
<g>
	<path class="st1" d="M156.4,35.3h1v3.9h2.4v0.9h-3.4V35.3z"/>
	<path class="st1" d="M163.3,39.6c-0.3,0.4-0.7,0.5-1.3,0.5s-1.1-0.2-1.3-0.5c-0.3-0.4-0.4-0.8-0.4-1.3c0-0.5,0.1-0.9,0.4-1.3
		c0.3-0.4,0.7-0.6,1.3-0.6s1.1,0.2,1.3,0.6c0.3,0.4,0.4,0.8,0.4,1.3C163.7,38.8,163.5,39.3,163.3,39.6z M162.5,39.1
		c0.1-0.2,0.2-0.5,0.2-0.8c0-0.4-0.1-0.6-0.2-0.8c-0.1-0.2-0.3-0.3-0.6-0.3s-0.5,0.1-0.6,0.3c-0.1,0.2-0.2,0.5-0.2,0.8
		c0,0.4,0.1,0.6,0.2,0.8c0.1,0.2,0.4,0.3,0.6,0.3S162.4,39.3,162.5,39.1z"/>
	<path class="st1" d="M166.3,36.5C166.3,36.5,166.3,36.5,166.3,36.5l0.1,0.9c-0.1,0-0.1,0-0.2,0c0,0-0.1,0-0.1,0
		c-0.4,0-0.6,0.1-0.7,0.4c-0.1,0.1-0.1,0.3-0.1,0.6v1.7h-0.9v-3.5h0.9v0.6c0.1-0.2,0.3-0.4,0.4-0.5C165.8,36.6,166,36.5,166.3,36.5
		C166.3,36.5,166.3,36.5,166.3,36.5z"/>
	<path class="st1" d="M169.2,36.6c0.2,0.1,0.4,0.3,0.6,0.5c0.1,0.2,0.2,0.4,0.3,0.7c0,0.2,0,0.4,0,0.7h-2.6c0,0.4,0.1,0.6,0.4,0.7
		c0.1,0.1,0.3,0.1,0.5,0.1c0.2,0,0.4-0.1,0.5-0.2c0.1-0.1,0.1-0.1,0.2-0.2h0.9c0,0.2-0.1,0.4-0.3,0.6c-0.3,0.3-0.8,0.5-1.3,0.5
		c-0.5,0-0.9-0.1-1.2-0.4c-0.4-0.3-0.5-0.8-0.5-1.4c0-0.6,0.2-1.1,0.5-1.4c0.3-0.3,0.7-0.5,1.3-0.5C168.7,36.5,169,36.5,169.2,36.6z
		 M167.8,37.4c-0.1,0.1-0.2,0.3-0.2,0.5h1.6c0-0.2-0.1-0.4-0.2-0.6c-0.1-0.1-0.3-0.2-0.5-0.2C168.1,37.2,168,37.3,167.8,37.4z"/>
	<path class="st1" d="M175,36.6c0.1,0.1,0.3,0.2,0.4,0.3c0.1,0.1,0.2,0.3,0.2,0.4c0,0.1,0,0.3,0,0.5l0,2.2h-0.9v-2.2
		c0-0.1,0-0.2-0.1-0.3c-0.1-0.2-0.2-0.2-0.4-0.2c-0.3,0-0.4,0.1-0.5,0.3c0,0.1-0.1,0.2-0.1,0.4v2.1h-0.9V38c0-0.2,0-0.4-0.1-0.5
		c-0.1-0.2-0.2-0.3-0.5-0.3c-0.3,0-0.4,0.1-0.5,0.3c0,0.1-0.1,0.2-0.1,0.4v2.1h-0.9v-3.5h0.9v0.5c0.1-0.2,0.2-0.3,0.3-0.4
		c0.2-0.1,0.4-0.2,0.7-0.2c0.3,0,0.5,0.1,0.6,0.2c0.1,0.1,0.2,0.3,0.3,0.4c0.1-0.2,0.3-0.4,0.4-0.5c0.2-0.1,0.4-0.1,0.6-0.1
		C174.7,36.5,174.8,36.5,175,36.6z"/>
	<path class="st1" d="M179.2,40.1h-1v-4.7h1V40.1z"/>
	<path class="st1" d="M180.8,39c0,0.2,0.1,0.3,0.1,0.3c0.1,0.1,0.3,0.2,0.6,0.2c0.2,0,0.3,0,0.4-0.1c0.1-0.1,0.2-0.1,0.2-0.2
		c0-0.1,0-0.2-0.1-0.2c-0.1-0.1-0.4-0.1-1-0.3c-0.4-0.1-0.7-0.2-0.8-0.4c-0.2-0.1-0.2-0.4-0.2-0.6c0-0.3,0.1-0.6,0.4-0.8
		c0.3-0.2,0.6-0.3,1.1-0.3c0.4,0,0.8,0.1,1.1,0.3c0.3,0.2,0.4,0.5,0.5,0.9h-0.9c0-0.1,0-0.2-0.1-0.3c-0.1-0.1-0.3-0.2-0.5-0.2
		c-0.2,0-0.3,0-0.4,0.1c-0.1,0.1-0.1,0.1-0.1,0.2c0,0.1,0,0.2,0.1,0.2c0.1,0.1,0.4,0.1,1,0.3c0.4,0.1,0.6,0.2,0.8,0.4
		c0.2,0.2,0.3,0.4,0.3,0.7c0,0.3-0.1,0.6-0.4,0.9c-0.3,0.2-0.7,0.3-1.2,0.3c-0.6,0-1-0.1-1.2-0.3c-0.3-0.2-0.4-0.5-0.4-0.9H180.8z"
		/>
	<path class="st1" d="M186.7,36.9c0.3,0.3,0.4,0.7,0.4,1.3c0,0.6-0.1,1.1-0.4,1.4c-0.3,0.3-0.6,0.5-1.1,0.5c-0.3,0-0.5-0.1-0.7-0.2
		c-0.1-0.1-0.2-0.2-0.3-0.3v1.8h-0.9v-4.9h0.9v0.5c0.1-0.2,0.2-0.3,0.3-0.4c0.2-0.2,0.4-0.2,0.7-0.2
		C186.1,36.5,186.4,36.6,186.7,36.9z M186,37.6c-0.1-0.2-0.3-0.3-0.6-0.3c-0.3,0-0.6,0.2-0.7,0.5c-0.1,0.2-0.1,0.4-0.1,0.6
		c0,0.4,0.1,0.7,0.3,0.9c0.1,0.1,0.3,0.1,0.5,0.1c0.3,0,0.5-0.1,0.6-0.3c0.1-0.2,0.2-0.5,0.2-0.8C186.2,38,186.1,37.8,186,37.6z"/>
	<path class="st1" d="M188.7,36.6v2.1c0,0.2,0,0.3,0.1,0.4c0.1,0.2,0.2,0.3,0.5,0.3c0.3,0,0.5-0.1,0.6-0.4c0.1-0.1,0.1-0.3,0.1-0.5
		v-1.9h0.9v3.5H190v-0.5c0,0,0,0-0.1,0.1c0,0.1-0.1,0.1-0.1,0.1c-0.1,0.1-0.3,0.2-0.4,0.3c-0.1,0-0.3,0.1-0.5,0.1
		c-0.5,0-0.9-0.2-1-0.6c-0.1-0.2-0.2-0.5-0.2-0.9v-2.1H188.7z"/>
	<path class="st1" d="M196.2,36.6c0.1,0.1,0.3,0.2,0.4,0.3c0.1,0.1,0.2,0.3,0.2,0.4c0,0.1,0,0.3,0,0.5l0,2.2h-0.9v-2.2
		c0-0.1,0-0.2-0.1-0.3c-0.1-0.2-0.2-0.2-0.4-0.2c-0.3,0-0.4,0.1-0.5,0.3c0,0.1-0.1,0.2-0.1,0.4v2.1h-0.9V38c0-0.2,0-0.4-0.1-0.5
		c-0.1-0.2-0.2-0.3-0.5-0.3c-0.3,0-0.4,0.1-0.5,0.3c0,0.1-0.1,0.2-0.1,0.4v2.1h-0.9v-3.5h0.9v0.5c0.1-0.2,0.2-0.3,0.3-0.4
		c0.2-0.1,0.4-0.2,0.7-0.2c0.3,0,0.5,0.1,0.6,0.2c0.1,0.1,0.2,0.3,0.3,0.4c0.1-0.2,0.3-0.4,0.4-0.5c0.2-0.1,0.4-0.1,0.6-0.1
		C195.9,36.5,196,36.5,196.2,36.6z"/>
</g>
<path class="st3" d="M42.5,48.3H6.9c-2,0-3.7-1.6-3.7-3.7V9.3c0-2,1.6-3.7,3.7-3.7h35.6c2,0,3.7,1.6,3.7,3.7v35.3
	C46.1,46.6,44.5,48.3,42.5,48.3z"/>
<g>
	<path class="st1" d="M16.6,69.3h2.7l6.3,17.3h-2.6l-1.8-5.2h-6.9l-1.9,5.2H10L16.6,69.3z M20.4,79.5l-2.6-7.7L15,79.5H20.4z"/>
	<path class="st1" d="M34.2,79c0.5-0.1,0.8-0.3,1-0.6c0.1-0.2,0.1-0.5,0.1-0.8c0-0.7-0.3-1.3-0.8-1.6c-0.5-0.3-1.3-0.5-2.2-0.5
		c-1.1,0-1.9,0.3-2.4,0.9c-0.3,0.3-0.4,0.8-0.5,1.5h-2c0-1.6,0.5-2.6,1.5-3.3c1-0.6,2.1-0.9,3.4-0.9c1.5,0,2.7,0.3,3.6,0.8
		c0.9,0.6,1.4,1.4,1.4,2.6v7.3c0,0.2,0,0.4,0.1,0.5c0.1,0.1,0.3,0.2,0.6,0.2c0.1,0,0.2,0,0.3,0c0.1,0,0.2,0,0.4-0.1v1.6
		c-0.3,0.1-0.6,0.2-0.8,0.2c-0.2,0-0.4,0-0.7,0c-0.7,0-1.3-0.3-1.6-0.8c-0.2-0.3-0.3-0.7-0.4-1.2c-0.4,0.6-1.1,1.1-1.9,1.5
		c-0.8,0.4-1.7,0.6-2.7,0.6c-1.2,0-2.1-0.4-2.9-1.1c-0.7-0.7-1.1-1.6-1.1-2.7c0-1.2,0.4-2.1,1.1-2.7c0.7-0.6,1.7-1,2.9-1.2L34.2,79z
		 M29.7,84.7c0.4,0.4,1,0.5,1.6,0.5c0.7,0,1.5-0.2,2.2-0.5c1.2-0.6,1.8-1.5,1.8-2.8v-1.7c-0.3,0.2-0.6,0.3-1,0.4
		c-0.4,0.1-0.8,0.2-1.2,0.2L31.7,81c-0.8,0.1-1.3,0.3-1.7,0.5c-0.7,0.4-1,1-1,1.8C29,83.9,29.2,84.3,29.7,84.7z"/>
</g>
<path class="st0" d="M106.3,140.6H4.9c-0.5,0-1-0.4-1-1v-3.3c0-0.5,0.4-1,1-1h101.4c0.5,0,1,0.4,1,1v3.3
	C107.3,140.2,106.9,140.6,106.3,140.6z"/>
<path class="st1" d="M57.3,140.2H4.9c-0.5,0-1-0.4-1-1v-2.9c0-0.5,0.4-1,1-1h52.4c0.5,0,1,0.4,1,1v2.9
	C58.3,139.8,57.9,140.2,57.3,140.2z"/>
<path class="st0" d="M72.9,55.2v46.6c0,1.5-1.2,2.7-2.7,2.7h-5.8c-1.5,0-2.7-1.2-2.7-2.7V55.2c0-1.5,1.2-2.7,2.7-2.7h5.8
	C71.7,52.5,72.9,53.7,72.9,55.2z"/>
<path class="st1" d="M72.9,80v21.8c0,1.5-1.2,2.7-2.7,2.7h-5.8c-1.5,0-2.7-1.2-2.7-2.7V80c0-1.5,1.2-2.7,2.7-2.7h5.8
	C71.7,77.3,72.9,78.5,72.9,80z"/>
<path class="st0" d="M89.4,38.9v63c0,1.5-1.2,2.7-2.7,2.7H81c-1.5,0-2.7-1.2-2.7-2.7v-63c0-1.5,1.2-2.7,2.7-2.7h5.8
	C88.2,36.2,89.4,37.4,89.4,38.9z"/>
<path class="st1" d="M89.4,71.5v30.4c0,1.5-1.2,2.7-2.7,2.7H81c-1.5,0-2.7-1.2-2.7-2.7V71.5c0-1.5,1.2-2.7,2.7-2.7h5.8
	C88.2,68.8,89.4,70,89.4,71.5z"/>
<path class="st0" d="M105.9,71.9v29.8c0,1.5-1.2,2.7-2.7,2.7h-5.8c-1.5,0-2.7-1.2-2.7-2.7V71.9c0-1.5,1.2-2.7,2.7-2.7h5.8
	C104.7,69.2,105.9,70.5,105.9,71.9z"/>
<path class="st1" d="M105.9,88.7v13c0,1.5-1.2,2.7-2.7,2.7h-5.8c-1.5,0-2.7-1.2-2.7-2.7v-13c0-1.5,1.2-2.7,2.7-2.7h5.8
	C104.7,86,105.9,87.2,105.9,88.7z"/>
<path class="st0" d="M106.6,140.5H5.2c-0.5,0-1-0.4-1-1v-3.3c0-0.5,0.4-1,1-1h101.4c0.5,0,1,0.4,1,1v3.3
	C107.6,140,107.2,140.5,106.6,140.5z"/>
<path class="st4" d="M57.6,140.1H5.2c-0.5,0-1-0.4-1-1v-2.9c0-0.5,0.4-1,1-1h52.4c0.5,0,1,0.4,1,1v2.9
	C58.6,139.6,58.2,140.1,57.6,140.1z"/>
<path class="st0" d="M73.2,55v46.6c0,1.5-1.2,2.7-2.7,2.7h-5.8c-1.5,0-2.7-1.2-2.7-2.7V55c0-1.5,1.2-2.7,2.7-2.7h5.8
	C72,52.3,73.2,53.5,73.2,55z"/>
<path class="st4" d="M73.2,79.8v21.8c0,1.5-1.2,2.7-2.7,2.7h-5.8c-1.5,0-2.7-1.2-2.7-2.7V79.8c0-1.5,1.2-2.7,2.7-2.7h5.8
	C72,77.1,73.2,78.3,73.2,79.8z"/>
<path class="st0" d="M89.7,38.7v63c0,1.5-1.2,2.7-2.7,2.7h-5.8c-1.5,0-2.7-1.2-2.7-2.7v-63c0-1.5,1.2-2.7,2.7-2.7H87
	C88.5,36,89.7,37.2,89.7,38.7z"/>
<path class="st4" d="M89.7,71.3v30.4c0,1.5-1.2,2.7-2.7,2.7h-5.8c-1.5,0-2.7-1.2-2.7-2.7V71.3c0-1.5,1.2-2.7,2.7-2.7H87
	C88.5,68.6,89.7,69.9,89.7,71.3z"/>
<path class="st0" d="M106.2,71.8v29.8c0,1.5-1.2,2.7-2.7,2.7h-5.8c-1.5,0-2.7-1.2-2.7-2.7V71.8c0-1.5,1.2-2.7,2.7-2.7h5.8
	C105,69.1,106.2,70.3,106.2,71.8z"/>
<path class="st4" d="M106.2,88.5v13c0,1.5-1.2,2.7-2.7,2.7h-5.8c-1.5,0-2.7-1.2-2.7-2.7v-13c0-1.5,1.2-2.7,2.7-2.7h5.8
	C105,85.8,106.2,87.1,106.2,88.5z"/>
</svg>
