<!--?xml version="1.0" encoding="utf-8"?-->
<!-- Generator: Adobe Illustrator 24.1.2, SVG Export Plug-In . SVG Version: 6.00 Build 0)  -->
<svg version="1.1" xmlns="http://www.w3.org/2000/svg" xmlns:xlink="http://www.w3.org/1999/xlink" x="0px" y="0px" viewBox="0 0 490.3 407.9" style="" xml:space="preserve">
<style type="text/css">
	.st0{fill:#C6BBDD;}
	.st1{fill:#FFFFFF;}
	.st2{fill:#151732;}
	.st3{fill:none;stroke:#FFFFFF;stroke-miterlimit:10;}

</style>
<g id="Livello_1">
	<path class="st0 BHkLWJcl_0" d="M244.2,252.4h-50.5c-3.1,0-5.4,2.9-4.6,5.9l0,0c6.8,25.3,7.2,52,1.1,77.5l-1.3,5.4c-0.7,3,1.5,5.8,4.6,5.8
		h50.7h1.3h50.7c3,0,5.3-2.8,4.6-5.8l-1.3-5.4c-6.1-25.5-5.7-52.2,1.1-77.5v0c0.8-3-1.5-5.9-4.6-5.9h-50.5"></path>
	<path class="st1 BHkLWJcl_1" d="M480.4,298.3H9.2c-4.5,0-7.9-3.9-7.6-8.6L19.9,15.2c0.3-4,3.9-7.3,8-7.3h433.8c4.2,0,7.7,3.3,8,7.3L488,289.7
		C488.3,294.5,484.9,298.3,480.4,298.3z"></path>
	<path class="st2 BHkLWJcl_2" d="M464.3,240.4H25.4c-4.2,0-7.4-2.8-7.2-6.3L31.4,29.4c0.2-3.1,3.6-5.6,7.5-5.6h411.7c3.9,0,7.3,2.5,7.5,5.6
		l13.3,204.8C471.7,237.6,468.5,240.4,464.3,240.4z"></path>
	<path class="st1 BHkLWJcl_3" d="M361.4,396.8H128.2c-1.3,0-2.1-1.5-1.4-2.6l26.3-38.9c0.3-0.5,0.8-0.7,1.4-0.7h180.7c0.5,0,1.1,0.3,1.4,0.7
		l26.3,38.9C363.5,395.3,362.7,396.8,361.4,396.8z"></path>
	<path class="st1 BHkLWJcl_4" d="M460.3,395.6L460.3,395.6c-15.2,7.9-37.5-0.6-45.7-16.6l-6.3-12.2c-5.8-11.1,0.8-21.3,12.7-24h0
		c10.9-2.5,24.8,1.6,32.8,10l8.5,8.9C473,373,473.6,388.7,460.3,395.6z"></path>
	<g>
		<path class="st1 BHkLWJcl_5" d="M112,153.6h-8.8l-1.4-36.9L95,153.6h-8.8L84.8,108h6.1l0.7,35.1l6.6-35.1h8.5l1.5,35.1L114,108h6.1L112,153.6
			z"></path>
		<path class="st1 BHkLWJcl_6" d="M132.7,153.6l-0.6-10.3h-6.8l-1.8,10.3h-6.2l9.1-45.6h8.9l3.8,45.6H132.7z M130.3,114.8l-4.1,22.6h5.4
			L130.3,114.8z"></path>
		<path class="st1 BHkLWJcl_7" d="M155.8,153.6l-6.7-30.6l-1.4,30.6h-6.2l2.4-45.6h7.6l7,30.7l1.2-30.7h6.1l-1.9,45.6H155.8z"></path>
		<path class="st1 BHkLWJcl_8" d="M172.6,153.6l1.5-39.9h-5.7l0.2-5.7h17.4l-0.2,5.7h-5.7l-1.3,39.9H172.6z"></path>
		<path class="st1 BHkLWJcl_9" d="M206.7,153.6l-1-10.3h-6.8l-1.5,10.3h-6.2l7.4-45.6h8.9l5.4,45.6H206.7z M202.9,114.8l-3.2,22.6h5.4
			L202.9,114.8z"></path>
		<path class="st1 BHkLWJcl_10" d="M222.4,153.6l0.6-45.6h10.2c4.6,0,8.3,2.6,8.3,9.4l-0.1,26.5c0,7-3.8,9.7-8.5,9.7H222.4z M235.3,118.1
			c0-3.3-1-4.5-3.3-4.5h-3l-0.3,34h3.1c2.3,0,3.4-1.2,3.4-4.6L235.3,118.1z"></path>
		<path class="st1 BHkLWJcl_11" d="M245.9,153.6l0-45.6h16.3l0,5.7H252l0,13.8h9.9l0,5.8h-10l0,14.5h10.4l0,5.9H245.9z"></path>
		<path class="st1 BHkLWJcl_12" d="M284.8,144.7c0.1,6.7-3.8,9.7-9.4,9.7c-5.7,0-9.7-3.1-9.7-9.7l-0.1-6.6h6.2l0.1,5.8c0,3.4,1.8,4.6,3.5,4.6
			c1.7,0,3.4-1.2,3.3-4.6l-0.1-3.8c-0.1-5.1-13-9.3-13.1-17.9l-0.1-5.7c-0.1-6.6,4.3-9.3,9.3-9.3c5.8,0,9.5,2.6,9.6,9.3l0.1,7.1
			h-6.1l-0.1-6.3c-0.1-3.3-1.7-4.5-3.4-4.5c-1.7,0-3.3,1.2-3.3,4.5l0,3.8c0.1,6.9,13,9.2,13.2,17.7L284.8,144.7z"></path>
		<path class="st1 BHkLWJcl_13" d="M289.1,153.6l-1-45.6h6.1l1.1,45.6H289.1z"></path>
		<path class="st1 BHkLWJcl_14" d="M312.9,135.8h-4.1l-0.2-5.8h10.2l0.5,14.7c0.3,7-4.1,9.7-9.5,9.7c-5.5,0-10.1-2.9-10.3-9.7l-0.7-28.1
			c-0.2-6.6,3.9-9.3,9.5-9.3c5.7,0,9.7,2.8,10,9.3l0.3,7h-6.1l-0.2-6.2c-0.1-3.3-1.8-4.5-3.8-4.5c-2,0-3.6,1.2-3.5,4.5l0.8,26.5
			c0.1,3.4,1.8,4.6,3.8,4.6s3.7-1.2,3.6-4.6L312.9,135.8z"></path>
		<path class="st1 BHkLWJcl_15" d="M338.2,153.6l-9.5-30.6l1.4,30.6h-6.2l-1.7-45.6h7.6l9.8,30.7L338,108h6.1l2.2,45.6H338.2z"></path>
		<path class="st1 BHkLWJcl_16" d="M351.2,153.6l-2.4-45.6h16.3l0.3,5.7h-10.3l0.8,13.8h9.9l0.3,5.8h-10l0.8,14.5h10.4l0.4,5.9H351.2z"></path>
		<path class="st1 BHkLWJcl_17" d="M385.9,153.6l-6.6-19H377l1.2,19H372l-2.8-45.6h10.1c4.6,0,8.6,2.6,9.1,9.4l0.5,7.3c0.3,4.6-0.6,7.2-3.8,8.7
			l7.1,20.3H385.9z M382.3,118.1c-0.2-3.3-1.4-4.5-3.6-4.5h-3l1,15.2h3.1c2.3,0,3.3-1.2,3.1-4.5L382.3,118.1z"></path>
		<path class="st1 BHkLWJcl_18" d="M399.3,142l-1.7-14.6c0.4,0.1,0.7,0.1,1.2,0.1c1.7,0,5.7-0.6,5.5-3.9l-0.5-6.4c-0.3-3.3-2-4.5-3.7-4.5
			c-1.7,0-3.3,1.2-3,4.5l0.4,5.2h-6.1l-0.4-5.4c-0.5-6.4,2.6-9.9,9-9.9c6,0,9.4,3,9.9,9.6l0.6,7c0.4,5-0.7,8.2-6.2,9.2l0.1,9.1
			H399.3z M398.7,150.2c-0.2-2.1,1.4-3.8,3.5-3.8c2.1,0,4,1.7,4.1,3.8c0.2,2.1-1.4,3.8-3.5,3.8C400.7,154.1,398.8,152.4,398.7,150.2
			z"></path>
	</g>
</g>
<g id="Livello_2">
	<g>
		<path class="st3 BHkLWJcl_19" d="M112,153.6h-8.8l-1.4-36.9L95,153.6h-8.8L84.8,108h6.1l0.7,35.1l6.6-35.1h8.5l1.5,35.1L114,108h6.1L112,153.6
			z"></path>
		<path class="st3 BHkLWJcl_20" d="M132.7,153.6l-0.6-10.3h-6.8l-1.8,10.3h-6.2l9.1-45.6h8.9l3.8,45.6H132.7z M130.3,114.8l-4.1,22.6h5.4
			L130.3,114.8z"></path>
		<path class="st3 BHkLWJcl_21" d="M155.8,153.6l-6.7-30.6l-1.4,30.6h-6.2l2.4-45.6h7.6l7,30.7l1.2-30.7h6.1l-1.9,45.6H155.8z"></path>
		<path class="st3 BHkLWJcl_22" d="M172.6,153.6l1.5-39.9h-5.7l0.2-5.7h17.4l-0.2,5.7h-5.7l-1.3,39.9H172.6z"></path>
		<path class="st3 BHkLWJcl_23" d="M206.7,153.6l-1-10.3h-6.8l-1.5,10.3h-6.2l7.4-45.6h8.9l5.4,45.6H206.7z M202.9,114.8l-3.2,22.6h5.4
			L202.9,114.8z"></path>
		<path class="st3 BHkLWJcl_24" d="M222.4,153.6l0.6-45.6h10.2c4.6,0,8.3,2.6,8.3,9.4l-0.1,26.5c0,7-3.8,9.7-8.5,9.7H222.4z M235.3,118.1
			c0-3.3-1-4.5-3.3-4.5h-3l-0.3,34h3.1c2.3,0,3.4-1.2,3.4-4.6L235.3,118.1z"></path>
		<path class="st3 BHkLWJcl_25" d="M245.9,153.6l0-45.6h16.3l0,5.7H252l0,13.8h9.9l0,5.8h-10l0,14.5h10.4l0,5.9H245.9z"></path>
		<path class="st3 BHkLWJcl_26" d="M284.8,144.7c0.1,6.7-3.8,9.7-9.4,9.7c-5.7,0-9.7-3.1-9.7-9.7l-0.1-6.6h6.2l0.1,5.8c0,3.4,1.8,4.6,3.5,4.6
			c1.7,0,3.4-1.2,3.3-4.6l-0.1-3.8c-0.1-5.1-13-9.3-13.1-17.9l-0.1-5.7c-0.1-6.6,4.3-9.3,9.3-9.3c5.8,0,9.5,2.6,9.6,9.3l0.1,7.1
			h-6.1l-0.1-6.3c-0.1-3.3-1.7-4.5-3.4-4.5c-1.7,0-3.3,1.2-3.3,4.5l0,3.8c0.1,6.9,13,9.2,13.2,17.7L284.8,144.7z"></path>
		<path class="st3 BHkLWJcl_27" d="M289.1,153.6l-1-45.6h6.1l1.1,45.6H289.1z"></path>
		<path class="st3 BHkLWJcl_28" d="M312.9,135.8h-4.1l-0.2-5.8h10.2l0.5,14.7c0.3,7-4.1,9.7-9.5,9.7c-5.5,0-10.1-2.9-10.3-9.7l-0.7-28.1
			c-0.2-6.6,3.9-9.3,9.5-9.3c5.7,0,9.7,2.8,10,9.3l0.3,7h-6.1l-0.2-6.2c-0.1-3.3-1.8-4.5-3.8-4.5c-2,0-3.6,1.2-3.5,4.5l0.8,26.5
			c0.1,3.4,1.8,4.6,3.8,4.6s3.7-1.2,3.6-4.6L312.9,135.8z"></path>
		<path class="st3 BHkLWJcl_29" d="M338.2,153.6l-9.5-30.6l1.4,30.6h-6.2l-1.7-45.6h7.6l9.8,30.7L338,108h6.1l2.2,45.6H338.2z"></path>
		<path class="st3 BHkLWJcl_30" d="M351.2,153.6l-2.4-45.6h16.3l0.3,5.7h-10.3l0.8,13.8h9.9l0.3,5.8h-10l0.8,14.5h10.4l0.4,5.9H351.2z"></path>
		<path class="st3 BHkLWJcl_31" d="M385.9,153.6l-6.6-19H377l1.2,19H372l-2.8-45.6h10.1c4.6,0,8.6,2.6,9.1,9.4l0.5,7.3c0.3,4.6-0.6,7.2-3.8,8.7
			l7.1,20.3H385.9z M382.3,118.1c-0.2-3.3-1.4-4.5-3.6-4.5h-3l1,15.2h3.1c2.3,0,3.3-1.2,3.1-4.5L382.3,118.1z"></path>
		<path class="st3 BHkLWJcl_32" d="M399.3,142l-1.7-14.6c0.4,0.1,0.7,0.1,1.2,0.1c1.7,0,5.7-0.6,5.5-3.9l-0.5-6.4c-0.3-3.3-2-4.5-3.7-4.5
			c-1.7,0-3.3,1.2-3,4.5l0.4,5.2h-6.1l-0.4-5.4c-0.5-6.4,2.6-9.9,9-9.9c6,0,9.4,3,9.9,9.6l0.6,7c0.4,5-0.7,8.2-6.2,9.2l0.1,9.1
			H399.3z M398.7,150.2c-0.2-2.1,1.4-3.8,3.5-3.8c2.1,0,4,1.7,4.1,3.8c0.2,2.1-1.4,3.8-3.5,3.8C400.7,154.1,398.8,152.4,398.7,150.2
			z"></path>
	</g>
</g>
<style data-made-with="vivus-instant">.BHkLWJcl_0{stroke-dasharray:406 408;stroke-dashoffset:407;animation:BHkLWJcl_draw 2000ms linear 0ms forwards;}.BHkLWJcl_1{stroke-dasharray:1505 1507;stroke-dashoffset:1506;animation:BHkLWJcl_draw 2000ms linear 31ms forwards;}.BHkLWJcl_2{stroke-dasharray:1303 1305;stroke-dashoffset:1304;animation:BHkLWJcl_draw 2000ms linear 62ms forwards;}.BHkLWJcl_3{stroke-dasharray:519 521;stroke-dashoffset:520;animation:BHkLWJcl_draw 2000ms linear 93ms forwards;}.BHkLWJcl_4{stroke-dasharray:188 190;stroke-dashoffset:189;animation:BHkLWJcl_draw 2000ms linear 125ms forwards;}.BHkLWJcl_5{stroke-dasharray:347 349;stroke-dashoffset:348;animation:BHkLWJcl_draw 2000ms linear 156ms forwards;}.BHkLWJcl_6{stroke-dasharray:193 195;stroke-dashoffset:194;animation:BHkLWJcl_draw 2000ms linear 187ms forwards;}.BHkLWJcl_7{stroke-dasharray:244 246;stroke-dashoffset:245;animation:BHkLWJcl_draw 2000ms linear 218ms forwards;}.BHkLWJcl_8{stroke-dasharray:127 129;stroke-dashoffset:128;animation:BHkLWJcl_draw 2000ms linear 250ms forwards;}.BHkLWJcl_9{stroke-dasharray:192 194;stroke-dashoffset:193;animation:BHkLWJcl_draw 2000ms linear 281ms forwards;}.BHkLWJcl_10{stroke-dasharray:200 202;stroke-dashoffset:201;animation:BHkLWJcl_draw 2000ms linear 312ms forwards;}.BHkLWJcl_11{stroke-dasharray:165 167;stroke-dashoffset:166;animation:BHkLWJcl_draw 2000ms linear 343ms forwards;}.BHkLWJcl_12{stroke-dasharray:190 192;stroke-dashoffset:191;animation:BHkLWJcl_draw 2000ms linear 375ms forwards;}.BHkLWJcl_13{stroke-dasharray:104 106;stroke-dashoffset:105;animation:BHkLWJcl_draw 2000ms linear 406ms forwards;}.BHkLWJcl_14{stroke-dasharray:206 208;stroke-dashoffset:207;animation:BHkLWJcl_draw 2000ms linear 437ms forwards;}.BHkLWJcl_15{stroke-dasharray:245 247;stroke-dashoffset:246;animation:BHkLWJcl_draw 2000ms linear 468ms forwards;}.BHkLWJcl_16{stroke-dasharray:165 167;stroke-dashoffset:166;animation:BHkLWJcl_draw 2000ms linear 500ms forwards;}.BHkLWJcl_17{stroke-dasharray:205 207;stroke-dashoffset:206;animation:BHkLWJcl_draw 2000ms linear 531ms forwards;}.BHkLWJcl_18{stroke-dasharray:149 151;stroke-dashoffset:150;animation:BHkLWJcl_draw 2000ms linear 562ms forwards;}.BHkLWJcl_19{stroke-dasharray:347 349;stroke-dashoffset:348;animation:BHkLWJcl_draw 2000ms linear 593ms forwards;}.BHkLWJcl_20{stroke-dasharray:193 195;stroke-dashoffset:194;animation:BHkLWJcl_draw 2000ms linear 625ms forwards;}.BHkLWJcl_21{stroke-dasharray:244 246;stroke-dashoffset:245;animation:BHkLWJcl_draw 2000ms linear 656ms forwards;}.BHkLWJcl_22{stroke-dasharray:127 129;stroke-dashoffset:128;animation:BHkLWJcl_draw 2000ms linear 687ms forwards;}.BHkLWJcl_23{stroke-dasharray:192 194;stroke-dashoffset:193;animation:BHkLWJcl_draw 2000ms linear 718ms forwards;}.BHkLWJcl_24{stroke-dasharray:200 202;stroke-dashoffset:201;animation:BHkLWJcl_draw 2000ms linear 750ms forwards;}.BHkLWJcl_25{stroke-dasharray:165 167;stroke-dashoffset:166;animation:BHkLWJcl_draw 2000ms linear 781ms forwards;}.BHkLWJcl_26{stroke-dasharray:190 192;stroke-dashoffset:191;animation:BHkLWJcl_draw 2000ms linear 812ms forwards;}.BHkLWJcl_27{stroke-dasharray:104 106;stroke-dashoffset:105;animation:BHkLWJcl_draw 2000ms linear 843ms forwards;}.BHkLWJcl_28{stroke-dasharray:206 208;stroke-dashoffset:207;animation:BHkLWJcl_draw 2000ms linear 875ms forwards;}.BHkLWJcl_29{stroke-dasharray:245 247;stroke-dashoffset:246;animation:BHkLWJcl_draw 2000ms linear 906ms forwards;}.BHkLWJcl_30{stroke-dasharray:165 167;stroke-dashoffset:166;animation:BHkLWJcl_draw 2000ms linear 937ms forwards;}.BHkLWJcl_31{stroke-dasharray:205 207;stroke-dashoffset:206;animation:BHkLWJcl_draw 2000ms linear 968ms forwards;}.BHkLWJcl_32{stroke-dasharray:149 151;stroke-dashoffset:150;animation:BHkLWJcl_draw 2000ms linear 1000ms forwards;}@keyframes BHkLWJcl_draw{100%{stroke-dashoffset:0;}}@keyframes BHkLWJcl_fade{0%{stroke-opacity:1;}94.44444444444444%{stroke-opacity:1;}100%{stroke-opacity:0;}}</style></svg>
