<?xml version="1.0" encoding="utf-8"?>
<!-- Generator: Adobe Illustrator 24.1.2, SVG Export Plug-In . SVG Version: 6.00 Build 0)  -->
<svg version="1.1" id="Livello_1" xmlns="http://www.w3.org/2000/svg" xmlns:xlink="http://www.w3.org/1999/xlink" x="0px" y="0px"
	 viewBox="0 0 1209.3 407.9" style="enable-background:new 0 0 1209.3 407.9;" xml:space="preserve">
<style type="text/css">
	.st0{fill:#8600BD;}
	.st1{opacity:0.58;fill:#242D64;}
	.st2{opacity:0.38;fill:#2C69F2;}
	.st3{fill:#151732;}
	.st4{fill:#D658A7;}
	.st5{opacity:0.31;fill:#A9C7FF;}
	.st6{fill:#2E0062;}
	.st7{opacity:0.43;fill:#FFFFFF;}
	.st8{fill:#FADD77;}
	.st9{fill:#C6BBDD;}
	.st10{fill:#FFFFFF;}
	.st11{fill:#FFC8A6;}
	.st12{fill:url(#SVGID_1_);}
	.st13{fill:none;stroke:#2E0062;stroke-width:0.5997;stroke-miterlimit:10;}
	.st14{opacity:0.34;}
	.st15{fill:#1D1927;}
</style>
<path class="st0" d="M308,266.8h712.7c6.4,0,12.8,1.6,18.4,4.5l111.3,58.4c9.9,5.2,16.5,13.9,17.8,23.4l3,23.2
	c2.1,16-11.4,29-30.1,29H138.7c-33.4,0-38.5-36.9-7.8-52.6l158.3-81.3C295,268.4,301.5,266.8,308,266.8z"/>
<ellipse class="st1" cx="406.1" cy="280.1" rx="47.3" ry="5.8"/>
<path class="st2" d="M446.5,248c-8.8,2.1-25.3,3.6-44.3,3.6c-15.4,0-29.2-1-38.5-2.5l12.9-123c9.3,1,19.8,1.6,30.8,1.6
	c9.3,0,18.3-0.4,26.5-1.2L446.5,248z"/>
<path class="st3" d="M415.4,127.6c-2.7,0.1-5.4,0.1-8.1,0.1c-11,0-21.5-0.6-30.8-1.6l0.4-3.4c1.5-14.5,13.7-25.5,28.3-25.5
	C405.1,97.3,418.7,108.3,415.4,127.6z"/>
<path class="st2" d="M440.8,249.1c-7.4,1.8-22.5,2.5-38.6,2.5c-13.4-0.1-33.4-2.2-32.6-2.1l12.6-122.4c7.9,0.9,16.7,1.3,26.1,1.3
	c7.9,0,13.9-0.8,20.8-1.4L440.8,249.1z"/>
<path class="st4" d="M371.9,226.9c0,0,7.5-23.8,25.8-15.9c18.4,7.8,14.9-35.7,23.8-34.3c8.8,1.5,3.4,37,9.5,36.2
	c6.2-0.8,6.2-0.8,6.2-0.8l3.5,36.9c0,0-36.4,6.8-71.2,0.4L371.9,226.9z"/>
<ellipse class="st4" cx="394" cy="154.4" rx="7" ry="11"/>
<path class="st4" d="M388.6,188c-2.1,1.5-1.4,4.8,1.2,5.1c5.9,0.7,13.3-0.8,15.5-12.2C408.4,164.6,398.8,181,388.6,188z"/>
<path class="st5" d="M433.8,126.6L446.5,248c0,0-12.6,3.3-24.3,3.4l-6.8-123.7L433.8,126.6z"/>
<path class="st6" d="M415.4,127.6c3.3-19.4-10.3-30.4-10.3-30.4c7.3,0,14,2.7,19,7.3c5.1,4.6,8.5,10.9,9.2,18.1l0.4,3.9
	C428,127.1,421.8,127.5,415.4,127.6z"/>
<path class="st7" d="M424.2,127.5l6.1,74.8c0.4,3.2,3.3,5.4,6.5,4.9h0c3-0.4,5.2-3.2,4.8-6.2l-7.8-74.4L424.2,127.5z"/>
<path class="st6" d="M448.4,239.4c0,11.5-4.7,21.9-12.2,29.5c-7.5,7.5-18,12.2-29.5,12.2h-3.4c-4.1,0-8.1-0.6-11.9-1.7
	c6.7-2,12.7-5.6,17.5-10.5c7.5-7.5,12.2-18,12.2-29.5c0-0.6-0.5-1.1-1.1-1.1h27.3C447.9,238.3,448.4,238.8,448.4,239.4z"/>
<ellipse class="st1" cx="652.9" cy="288.1" rx="208.1" ry="8.7"/>
<path class="st3" d="M421.2,239.4c0,11.5-4.7,21.9-12.2,29.5c-4.8,4.8-10.8,8.5-17.5,10.5c-17.2-5.1-29.7-21.1-29.7-39.9
	c0-0.3,0.1-0.6,0.3-0.8c0.2-0.2,0.5-0.3,0.8-0.3h57.3C420.7,238.3,421.2,238.8,421.2,239.4z"/>
<path class="st8" d="M927.5,165.2"/>
<path class="st9" d="M649.2,211.1h-42.9c-2.6,0-4.6,2.5-3.9,5l0,0c5.8,21.5,6.1,44.2,0.9,65.8l-1.1,4.6c-0.6,2.5,1.3,4.9,3.9,4.9
	h43.1h1.1h43.1c2.6,0,4.5-2.4,3.9-4.9l-1.1-4.6c-5.2-21.7-4.9-44.3,0.9-65.8v0c0.7-2.5-1.2-5-3.9-5h-42.9"/>
<path class="st10" d="M849.8,250.2H449.6c-3.8,0-6.7-3.3-6.5-7.3L458.7,9.7c0.2-3.4,3.3-6.2,6.8-6.2h333.2H834
	c3.5,0,6.6,2.8,6.8,6.2l15.5,233.2C856.6,246.9,853.7,250.2,849.8,250.2z"/>
<path class="st3" d="M836.2,201H463.3c-3.6,0-6.3-2.4-6.1-5.3l11.3-173.9c0.2-2.6,3-4.7,6.4-4.7h349.8c3.3,0,6.2,2.1,6.4,4.7
	l11.3,173.9C842.5,198.6,839.7,201,836.2,201z"/>
<path class="st1" d="M854.4,214.2H445.1L458.7,9.7c0.2-3.4,3.3-6.2,6.8-6.2H834c3.5,0,6.6,2.8,6.8,6.2L854.4,214.2z"/>
<path class="st1" d="M753.5,335.3l-1-1.5l-22.2-33c-0.3-0.4-0.7-0.6-1.2-0.6h-160c-0.5,0-0.9,0.2-1.2,0.6l-22.2,33l-1,1.5
	c-0.7,1,0,2.3,1.2,2.3h206.4C753.5,337.6,754.2,336.3,753.5,335.3z"/>
<path class="st9" d="M748.1,334.4H550.1c-1.1,0-1.8-1.3-1.2-2.2l1-1.5c0.1,0,0.1,0,0.2,0h198.1c0.1,0,0.1,0,0.2,0l1,1.5
	C749.9,333.1,749.3,334.4,748.1,334.4z"/>
<path class="st10" d="M748.3,330.7c-0.1,0-0.1,0-0.2,0H550.1c-0.1,0-0.1,0-0.2,0l21.3-31.6c0.3-0.4,0.7-0.6,1.1-0.6h153.5
	c0.5,0,0.9,0.2,1.2,0.6L748.3,330.7z"/>
<g>
	<path class="st10" d="M536.9,127.2h-7.5l-1.2-31.4l-5.8,31.4h-7.5l-1.2-38.7h5.2l0.6,29.8l5.6-29.8h7.2l1.3,29.8l4.9-29.8h5.2
		L536.9,127.2z"/>
	<path class="st10" d="M554.5,127.2l-0.5-8.8h-5.8l-1.6,8.8h-5.3l7.7-38.7h7.6l3.2,38.7H554.5z M552.4,94.3l-3.4,19.2h4.6
		L552.4,94.3z"/>
	<path class="st10" d="M574.1,127.2l-5.7-26l-1.2,26H562l2-38.7h6.5l5.9,26.1l1.1-26.1h5.2l-1.6,38.7H574.1z"/>
	<path class="st10" d="M588.4,127.2l1.2-33.9h-4.8l0.2-4.8h14.8l-0.1,4.8h-4.8l-1.1,33.9H588.4z"/>
	<path class="st10" d="M617.3,127.2l-0.9-8.8h-5.8l-1.2,8.8h-5.3l6.3-38.7h7.6l4.6,38.7H617.3z M614.1,94.3l-2.7,19.2h4.6
		L614.1,94.3z"/>
	<path class="st10" d="M630.6,127.2l0.5-38.7h8.7c3.9,0,7,2.2,7,7.9l-0.1,22.6c0,5.9-3.2,8.2-7.2,8.2H630.6z M641.6,97.1
		c0-2.8-0.9-3.8-2.8-3.8h-2.6l-0.3,28.9h2.6c2,0,2.9-1,2.9-3.9L641.6,97.1z"/>
	<path class="st10" d="M650.6,127.2l0-38.7h13.9l0,4.8h-8.7l0,11.7h8.4l0,4.9h-8.5l0,12.3h8.9l0,5H650.6z"/>
	<path class="st10" d="M683.7,119.6c0.1,5.7-3.2,8.2-8,8.2c-4.8,0-8.2-2.6-8.3-8.2l-0.1-5.6h5.2l0.1,4.9c0,2.9,1.5,3.9,2.9,3.9
		c1.4,0,2.9-1,2.8-3.9l-0.1-3.2c-0.1-4.3-11.1-7.9-11.1-15.2l0-4.8c-0.1-5.6,3.6-7.9,7.9-7.9c5,0,8,2.2,8.1,7.9l0.1,6h-5.2l-0.1-5.4
		c0-2.8-1.5-3.8-2.9-3.8c-1.4,0-2.8,1-2.8,3.8l0,3.2c0.1,5.8,11,7.8,11.2,15.1L683.7,119.6z"/>
	<path class="st10" d="M687.3,127.2l-0.8-38.7h5.2l0.9,38.7H687.3z"/>
	<path class="st10" d="M707.6,112.1h-3.5l-0.2-4.9h8.7l0.5,12.5c0.2,5.9-3.5,8.2-8.1,8.2c-4.7,0-8.6-2.4-8.7-8.2l-0.6-23.9
		c-0.1-5.6,3.3-7.9,8.1-7.9c4.8,0,8.3,2.4,8.5,7.9l0.2,6h-5.2l-0.2-5.3c-0.1-2.8-1.5-3.8-3.2-3.8c-1.7,0-3.1,1-3,3.8l0.7,22.6
		c0.1,2.9,1.6,3.9,3.3,3.9c1.7,0,3.1-1,3-3.9L707.6,112.1z"/>
	<path class="st10" d="M729.1,127.2l-8.1-26l1.2,26h-5.3l-1.5-38.7h6.5l8.3,26.1l-1.3-26.1h5.2l1.9,38.7H729.1z"/>
	<path class="st10" d="M740.1,127.2l-2-38.7H752l0.3,4.8h-8.7l0.6,11.7h8.4l0.3,4.9h-8.5l0.7,12.3h8.9l0.3,5H740.1z"/>
	<path class="st10" d="M769.6,127.2l-5.6-16.1h-2l1.1,16.1h-5.3l-2.4-38.7h8.6c3.9,0,7.3,2.2,7.7,7.9l0.4,6.2
		c0.3,3.9-0.5,6.2-3.3,7.4l6.1,17.3H769.6z M766.5,97.1c-0.2-2.8-1.2-3.8-3.1-3.8h-2.6l0.8,12.9h2.6c1.9,0,2.8-1,2.6-3.8L766.5,97.1
		z"/>
	<path class="st10" d="M780.9,117.4l-1.5-12.4c0.3,0.1,0.6,0.1,1,0.1c1.4,0,4.9-0.5,4.6-3.3l-0.4-5.4c-0.2-2.8-1.7-3.8-3.1-3.8
		c-1.4,0-2.8,1-2.6,3.8l0.3,4.5h-5.2l-0.3-4.6c-0.4-5.4,2.2-8.4,7.6-8.4c5.1,0,7.9,2.6,8.4,8.1l0.5,5.9c0.3,4.2-0.6,7-5.2,7.8
		l0.1,7.7H780.9z M780.4,124.4c-0.1-1.8,1.2-3.2,3-3.2c1.8,0,3.4,1.4,3.5,3.2c0.1,1.8-1.2,3.3-3,3.3S780.6,126.2,780.4,124.4z"/>
</g>
<path class="st10" d="M816.3,323.7c-0.8,3-2.9,5.6-6.3,7.4c-10.2,5.3-25.2-0.4-30.8-11.2l-4.3-8.2c-0.4-0.7-0.6-1.3-0.8-2
	c1.3-3.6,4.7-6.3,9.4-7.4c1.4-0.3,2.9-0.5,4.5-0.5c6.3,0,13.2,2.7,17.6,7.2l5.7,6C813.9,317.7,815.6,320.7,816.3,323.7z"/>
<path class="st9" d="M810,337.9c-10.2,5.3-25.2-0.4-30.8-11.2l-4.3-8.2c-1.6-3.1-1.8-6.2-0.8-8.8c0.2,0.7,0.5,1.3,0.8,2l4.3,8.2
	c5.6,10.8,20.5,16.5,30.8,11.2c3.4-1.8,5.5-4.4,6.3-7.4C817.7,329.3,815.9,334.9,810,337.9z"/>
<polygon class="st11" points="908,292.5 1003.6,312.2 927.8,341.9 827,312.3 "/>
<radialGradient id="SVGID_1_" cx="442.8525" cy="363.7628" r="87.7439" gradientTransform="matrix(0.6142 0 0 0.6142 249.5881 78.8631)" gradientUnits="userSpaceOnUse">
	<stop  offset="0.4604" style="stop-color:#CAA296"/>
	<stop  offset="0.801" style="stop-color:#CAA296"/>
	<stop  offset="1" style="stop-color:#FFC8A6"/>
</radialGradient>
<path class="st12" d="M494,222l57.7,4.8c0,0,2,45.2-21.6,47.1l-58.7-3.5C471.4,270.3,498.1,254.9,494,222z"/>
<ellipse transform="matrix(0.1135 -0.9935 0.9935 0.1135 211.4615 734.3544)" class="st13" cx="517.3" cy="248.7" rx="16.8" ry="16.1"/>
<path class="st13" d="M526.4,256.4c-2.6,3.3-6.7,5.1-11,4.4c-4.7-0.8-8.3-4.3-9.5-8.8L526.4,256.4z"/>
<g>
	<line class="st13" x1="510.5" y1="238.7" x2="524.4" y2="251.9"/>
	<line class="st13" x1="526.1" y1="241.2" x2="508.8" y2="249.4"/>
</g>
<g class="st14">
	<path class="st15" d="M647.3,233.6c0,1.5-0.8,2.8-1.8,2.8c-1,0.1-1.8-1-1.8-2.5c0-1.5,0.8-2.8,1.8-2.9
		C646.5,230.9,647.3,232.1,647.3,233.6z"/>
	<path class="st15" d="M658.2,233.9c0,1.5-0.8,2.6-1.8,2.5c-1-0.1-1.8-1.3-1.8-2.8c0-1.5,0.8-2.7,1.8-2.6
		C657.4,231.1,658.2,232.4,658.2,233.9z"/>
	<path class="st15" d="M665.8,235.4c-0.3-0.2-0.7-0.5-1.1-0.7c-0.5-0.2-1.1-0.4-1.7-0.6c-0.6-3.7-2.5-7.2-5.3-9.5
		c0-0.8-0.2-1.5-0.3-2.1c-0.1-0.4-0.3-0.8-0.4-1.1c-0.5-0.8-1.1-1-1.5-1c-0.3,0-0.9,0-1.4,0.6c-0.2,0.2-0.3,0.5-0.4,0.9
		c-0.1,0.2-0.1,0.3-0.1,0.5c-0.8-0.2-1.7-0.3-2.6-0.3c-0.9,0-1.7,0.1-2.6,0.3c0-0.2-0.1-0.3-0.1-0.5c-0.1-0.4-0.3-0.6-0.4-0.9
		c-0.5-0.6-1.1-0.7-1.4-0.6c-0.3,0-1,0.2-1.5,1c-0.2,0.3-0.3,0.7-0.4,1.1c-0.2,0.6-0.3,1.3-0.3,2.1c-2.8,2.3-4.7,5.8-5.3,9.5
		c-0.6,0.2-1.2,0.4-1.7,0.6c-0.5,0.2-0.8,0.4-1.1,0.7c-0.8,0.7-0.9,1.3-0.9,1.7c0,0.3,0.1,1,0.9,1.3c0.3,0.1,0.7,0.2,1.1,0.2
		c0.5,0,1.1,0,1.7-0.1c0.1,0.9,0.4,1.8,0.7,2.7c0.1,0.3,0.2,0.5,0.3,0.8c0.8-0.1,1.6-0.2,2.5-0.4c0.1,0.7,0.3,1.3,0.6,1.8
		c0.6,1.1,1.5,1.6,2.5,1.5c1-0.1,1.9-0.8,2.5-1.9c0.3-0.5,0.5-1.2,0.6-1.9c1.6-0.1,3.2-0.1,4.8,0c0.1,0.7,0.3,1.3,0.6,1.9
		c0.6,1.2,1.5,1.9,2.5,1.9c1,0.1,1.9-0.5,2.5-1.5c0.3-0.5,0.5-1.1,0.6-1.8c0.8,0.1,1.6,0.2,2.5,0.4c0.1-0.3,0.2-0.5,0.3-0.8
		c0.3-0.9,0.6-1.8,0.7-2.7c0.6,0.1,1.2,0.1,1.7,0.1c0.5,0,0.8-0.1,1.1-0.2c0.8-0.3,0.9-0.9,0.9-1.3
		C666.7,236.8,666.6,236.1,665.8,235.4z M661.8,237.1C661.8,237.1,661.8,237,661.8,237.1c-0.1,1.3-0.4,2.4-0.8,3.5
		c-0.9-0.1-1.9-0.3-2.8-0.4c0,0,0,0,0,0c0,2-0.8,3.5-1.8,3.5c-1-0.1-1.8-1.7-1.8-3.7c0,0,0,0,0,0c-2.4-0.1-4.8-0.1-7.3,0
		c0,0,0,0,0,0c0,2-0.8,3.7-1.8,3.7c-1,0.1-1.8-1.5-1.8-3.5c0,0,0,0,0,0c-0.9,0.1-1.9,0.2-2.8,0.4c-0.4-1.1-0.7-2.2-0.8-3.5
		c0,0,0,0,0,0c-2,0.3-3.6,0.3-3.6-0.2c0-0.5,1.6-1.3,3.6-1.6c0,0,0,0,0,0c0.3-4,2.4-7.8,5.4-9.9c0-1.9,0.4-3.4,0.9-3.4
		c0.4,0,0.7,1,0.9,2.4c1.1-0.5,2.4-0.8,3.7-0.8c1.3,0,2.5,0.3,3.7,0.8c0.1-1.4,0.5-2.5,0.9-2.4c0.5,0,0.9,1.6,0.9,3.4
		c3,2.1,5.1,5.9,5.4,9.9c0,0,0,0,0,0c2,0.3,3.6,1.1,3.6,1.6C665.4,237.3,663.8,237.4,661.8,237.1z"/>
</g>
</svg>
