<?xml version="1.0" encoding="utf-8"?>
<!-- Generator: Adobe Illustrator 24.1.2, SVG Export Plug-In . SVG Version: 6.00 Build 0)  -->
<svg version="1.1" id="Livello_1" xmlns="http://www.w3.org/2000/svg" xmlns:xlink="http://www.w3.org/1999/xlink" x="0px" y="0px"
	 viewBox="0 0 37.4 27.2" style="enable-background:new 0 0 37.4 27.2;" xml:space="preserve">
<style type="text/css">
	.st0{fill:#FFFFFF;}
</style>
<g>
	<path class="st0" d="M13.5,1.2c-0.7-0.7-1.7-0.9-3-0.8c-1,0.1-2,0.4-3,1C6.8,0.9,5.8,0.8,4.6,0.9C2.9,1.1,1.4,1.6,0.1,2.5l0,0v24.6
		h3.1v-23C3.6,3.9,4,3.8,4.5,3.7c0.4,0,0.7,0,1,0.2c0.2,0.3,0.3,0.7,0.3,1.2v22h3.1V4.6c0-0.2,0-0.5-0.1-0.9c0.6-0.2,1-0.4,1.4-0.4
		s0.6,0.1,0.8,0.2c0.2,0.2,0.4,0.6,0.4,1.2v22.4h3.1V4.2C14.6,2.9,14.2,1.8,13.5,1.2z"/>
	<path class="st0" d="M21.8,0.3c-1.6,0-3.2-0.1-4.8,0h-0.1v26.8h4.8c2.7,0,4.1-1.5,4.1-4.5V4.8C25.8,1.9,24.5,0.4,21.8,0.3z
		 M20.1,3.4c0.5,0,0.9,0,1.4,0c0.8,0,1.2,0.5,1.2,1.4v17.9c0,0.5-0.1,0.8-0.3,1c-0.2,0.2-0.5,0.3-0.9,0.3c-0.5,0-0.9,0-1.4,0
		L20.1,3.4z"/>
	<path class="st0" d="M36.6,7.5c-0.4-1.6-1.2-3.4-2.4-5.5V1.9c-0.3-0.4-0.6-0.6-1.2-0.8C32.7,1,32.4,1,32.1,1c-0.5,0-1,0.2-1.2,0.6
		c-1.2,1.8-2,3.5-2.4,5.1S28,10.9,28,14.6v12.5h3.2V15.8H34V27h3.1V15C37.1,11.6,36.9,9,36.6,7.5z M34,12.4v0.4h-2.8v-0.6
		c0-3.2,0.3-5.6,1-7.1l0.1-0.4c0-0.1,0.1-0.2,0.2-0.1c0.2,0,0.3,0.1,0.3,0.2l0.1,0.4C33.6,7,34,9.4,34,12.4z"/>
</g>
</svg>
