<?xml version="1.0" encoding="utf-8"?>
<!-- Generator: Adobe Illustrator 24.1.3, SVG Export Plug-In . SVG Version: 6.00 Build 0)  -->
<svg version="1.1" id="Livello_1" xmlns="http://www.w3.org/2000/svg" xmlns:xlink="http://www.w3.org/1999/xlink" x="0px" y="0px"
	 viewBox="0 0 144 110.6" style="enable-background:new 0 0 144 110.6;" xml:space="preserve">
<style type="text/css">
	.st0{fill:#FFFFFF;}
	.st1{fill:#F59D19;}
	.st2{fill:#1E1A27;}
</style>
<g>
	<path class="st0" d="M56.3,58.7c0,6.6-3.6,12.2-8,12.5c-4.4,0.3-8-4.6-8-11.3c0-6.6,3.6-12.4,8-12.7C52.7,46.8,56.3,52,56.3,58.7z"
		/>
	<path class="st0" d="M104.5,59.9c0,6.6-3.6,11.6-8,11.3c-4.4-0.4-8-5.9-8-12.5c0-6.6,3.6-11.8,8-11.5
		C100.9,47.5,104.5,53.3,104.5,59.9z"/>
	<path class="st0" d="M138.1,66.9c-1.3-1.1-2.9-2-5-3c-2.2-1-4.8-1.9-7.5-2.6c-2.4-16.2-10.8-31.7-23.3-41.8
		c-0.2-3.4-0.7-6.5-1.3-9.1c-0.5-2-1.1-3.6-1.9-4.9c-2.1-3.6-5-4.4-6.6-4.5c-1.4-0.1-4,0.2-6.1,2.9c-0.8,1-1.4,2.2-1.9,3.8
		C84.2,8.4,84,9.2,83.8,10c-3.7-1-7.6-1.5-11.4-1.5c-3.9,0-7.7,0.5-11.4,1.5c-0.2-0.8-0.4-1.5-0.6-2.2C59.7,6.2,59.1,5,58.3,4
		c-2.1-2.7-4.7-2.9-6.1-2.9c-1.5,0.1-4.4,0.8-6.6,4.5c-0.8,1.3-1.4,2.9-1.9,4.9c-0.7,2.6-1.1,5.7-1.3,9.1
		C30,29.6,21.6,45.2,19.1,61.4c-2.8,0.7-5.4,1.6-7.5,2.6c-2,0.9-3.7,1.9-5,3c-3.5,2.9-4,5.9-4,7.4c0,1.5,0.5,4.2,4,5.6
		c1.3,0.5,2.9,0.8,5,0.9c2.2,0.1,4.8,0,7.5-0.3c0.7,4.2,1.8,8.1,3.3,11.9c0.5,1.2,1,2.3,1.4,3.5c3.6-0.6,7.3-1.1,10.9-1.6
		c0.5,2.9,1.3,5.6,2.5,7.8c2.5,4.7,6.5,7.2,11,6.9c4.5-0.4,8.5-3.4,11-8.6c1.2-2.4,2-5.2,2.5-8.2c7.1-0.2,14.1-0.2,21.2,0
		c0.5,3,1.3,5.8,2.5,8.2c2.5,5.1,6.5,8.2,11,8.6c4.5,0.4,8.5-2.1,11-6.9c1.2-2.2,2-4.9,2.5-7.8c3.6,0.5,7.3,1,10.9,1.6
		c0.5-1.2,1-2.3,1.4-3.5c1.5-3.8,2.6-7.7,3.3-11.9c2.8,0.3,5.4,0.4,7.5,0.3c2-0.1,3.7-0.4,5-0.9c3.5-1.3,4-4,4-5.6
		C142.1,72.8,141.6,69.8,138.1,66.9z M120.4,74.1c0,0-0.1,0-0.1,0c-0.4,5.6-1.6,10.8-3.5,15.5c-4.1-0.6-8.2-1.1-12.3-1.6
		c0,0,0,0,0,0c0,8.8-3.6,15.6-8,15.3c-4.4-0.4-8-7.7-8-16.5c0,0,0,0,0,0c-10.7-0.6-21.4-0.6-32.1,0c0,0,0,0,0,0
		c0,8.8-3.6,16.2-8,16.5c-4.4,0.3-8-6.4-8-15.3c0,0,0,0,0,0c-4.1,0.4-8.2,1-12.3,1.6c-1.9-4.7-3.1-9.9-3.5-15.5c0,0-0.1,0-0.1,0
		c-8.8,1.4-15.9,1.2-15.9-1c0-2.2,7.1-5.6,15.9-7c0,0,0.1,0,0.1,0c1.2-17.7,10.5-34.5,23.8-43.9c0.1-8.4,1.9-15.1,4-15.3
		c1.8-0.1,3.3,4.4,3.8,10.8c5.1-2.2,10.6-3.5,16.3-3.5c5.7,0,11.2,1.2,16.3,3.5c0.5-6.4,2-10.9,3.8-10.8c2.1,0.1,3.9,6.9,4,15.3
		c13.4,9.4,22.6,26.2,23.8,43.9c0,0,0.1,0,0.1,0c8.8,1.4,15.9,4.8,15.9,7C136.3,75.2,129.2,75.5,120.4,74.1z"/>
</g>
<g>
	<path class="st1" d="M1048.2,369.1c0,2.2-7.1,2.4-15.9,1c0,0-0.1,0-0.1,0c-0.4,5.6-1.6,10.8-3.5,15.5c-4.1-0.6-8.2-1.1-12.3-1.6
		c0,0,0,0,0,0c0,8.8-3.6,15.6-8,15.3c-4.4-0.4-8-7.7-8-16.5c0,0,0,0,0,0c-10.7-0.6-21.4-0.6-32.1,0c0,0,0,0,0,0
		c0,8.8-3.6,16.2-8,16.5c-4.4,0.3-8-6.4-8-15.3c0,0,0,0,0,0c-4.1,0.4-8.2,1-12.3,1.6c-1.9-4.7-3.1-9.9-3.5-15.5c0,0-0.1,0-0.1,0
		c-8.8,1.4-15.9,1.2-15.9-1c0-2.2,7.1-5.6,15.9-7c0,0,0.1,0,0.1,0c1.2-17.7,10.5-34.5,23.8-43.9c0.1-8.4,1.9-15.1,4-15.3
		c1.8-0.1,3.3,4.4,3.8,10.8c5.1-2.2,10.6-3.5,16.3-3.5c5.7,0,11.2,1.2,16.3,3.5c0.5-6.4,2-10.9,3.8-10.8c2.1,0.1,3.9,6.9,4,15.3
		c13.4,9.4,22.6,26.2,23.8,43.9c0,0,0.1,0,0.1,0C1041.1,363.5,1048.2,366.8,1048.2,369.1z"/>
	<path class="st0" d="M1032.2,362.1c-2-0.2-3.9-0.3-5.9-0.5c-1.1-15.4-9-30.3-21.2-38.8c1.1-1.5,2.1-3.1,3.2-4.6
		C1021.7,327.6,1031,344.3,1032.2,362.1z"/>
	<g>
		<path class="st2" d="M968.2,354.7c0,6.6-3.6,12.2-8,12.5c-4.4,0.3-8-4.6-8-11.3c0-6.6,3.6-12.4,8-12.7
			C964.6,342.9,968.2,348.1,968.2,354.7z"/>
		<path class="st2" d="M1016.4,356c0,6.6-3.6,11.6-8,11.3c-4.4-0.4-8-5.9-8-12.5c0-6.6,3.6-11.8,8-11.5
			C1012.8,343.6,1016.4,349.3,1016.4,356z"/>
		<path class="st2" d="M1050,363c-1.3-1.1-2.9-2-5-3c-2.2-1-4.8-1.9-7.5-2.6c-2.4-16.2-10.8-31.7-23.3-41.8
			c-0.2-3.4-0.7-6.5-1.3-9.1c-0.5-2-1.1-3.6-1.9-4.9c-2.1-3.6-5-4.4-6.6-4.5c-1.4-0.1-4,0.2-6.1,2.9c-0.8,1-1.4,2.2-1.9,3.8
			c-0.2,0.7-0.4,1.4-0.6,2.2c-3.7-1-7.6-1.5-11.4-1.5c-3.9,0-7.7,0.5-11.4,1.5c-0.2-0.8-0.4-1.5-0.6-2.2c-0.5-1.6-1.2-2.8-1.9-3.8
			c-2.1-2.7-4.7-2.9-6.1-2.9c-1.5,0.1-4.4,0.8-6.6,4.5c-0.8,1.3-1.4,2.9-1.9,4.9c-0.7,2.6-1.1,5.7-1.3,9.1
			c-12.5,10.1-20.9,25.7-23.3,41.8c-2.8,0.7-5.4,1.6-7.5,2.6c-2,0.9-3.7,1.9-5,3c-3.5,2.9-4,5.9-4,7.4c0,1.5,0.5,4.2,4,5.6
			c1.3,0.5,2.9,0.8,5,0.9c2.2,0.1,4.8,0,7.5-0.3c0.7,4.2,1.8,8.1,3.3,11.9c0.5,1.2,1,2.3,1.4,3.5c3.6-0.6,7.3-1.1,10.9-1.6
			c0.5,2.9,1.3,5.6,2.5,7.8c2.5,4.7,6.5,7.2,11,6.9c4.5-0.4,8.5-3.4,11-8.6c1.2-2.4,2-5.2,2.5-8.2c7.1-0.2,14.1-0.2,21.2,0
			c0.5,3,1.3,5.8,2.5,8.2c2.5,5.1,6.5,8.2,11,8.6c4.5,0.4,8.5-2.1,11-6.9c1.2-2.2,2-4.9,2.5-7.8c3.6,0.5,7.3,1,10.9,1.6
			c0.5-1.2,1-2.3,1.4-3.5c1.5-3.8,2.6-7.7,3.3-11.9c2.8,0.3,5.4,0.4,7.5,0.3c2-0.1,3.7-0.4,5-0.9c3.5-1.3,4-4,4-5.6
			C1054,368.8,1053.5,365.8,1050,363z M1032.3,370.1c0,0-0.1,0-0.1,0c-0.4,5.6-1.6,10.8-3.5,15.5c-4.1-0.6-8.2-1.1-12.3-1.6
			c0,0,0,0,0,0c0,8.8-3.6,15.6-8,15.3c-4.4-0.4-8-7.7-8-16.5c0,0,0,0,0,0c-10.7-0.6-21.4-0.6-32.1,0c0,0,0,0,0,0
			c0,8.8-3.6,16.2-8,16.5c-4.4,0.3-8-6.4-8-15.3c0,0,0,0,0,0c-4.1,0.4-8.2,1-12.3,1.6c-1.9-4.7-3.1-9.9-3.5-15.5c0,0-0.1,0-0.1,0
			c-8.8,1.4-15.9,1.2-15.9-1c0-2.2,7.1-5.6,15.9-7c0,0,0.1,0,0.1,0c1.2-17.7,10.5-34.5,23.8-43.9c0.1-8.4,1.9-15.1,4-15.3
			c1.8-0.1,3.3,4.4,3.8,10.8c5.1-2.2,10.6-3.5,16.3-3.5c5.7,0,11.2,1.2,16.3,3.5c0.5-6.4,2-10.9,3.8-10.8c2.1,0.1,3.9,6.9,4,15.3
			c13.4,9.4,22.6,26.2,23.8,43.9c0,0,0.1,0,0.1,0c8.8,1.4,15.9,4.8,15.9,7C1048.2,371.3,1041.1,371.5,1032.3,370.1z"/>
	</g>
	<g>
		<g>
			<path class="st2" d="M974.8,414.1c-1.4-1.3-3.4-1.8-6.1-1.7c-1.9,0.1-3.9,0.8-5.9,1.9c-1.3-0.9-3.3-1.1-5.7-0.9
				c-3.4,0.4-6.4,1.5-9,3.1l-0.1,0l0,48.7l6.2,0l0-45.5c0.8-0.4,1.6-0.6,2.5-0.7c0.8-0.1,1.5,0.1,1.9,0.4c0.5,0.4,0.7,1.2,0.7,2.2
				l0,43.6l6.2,0l0-44.6c0-0.5,0-1.1-0.1-1.9c1.1-0.5,2.1-0.7,2.7-0.8c0.7,0,1.3,0.1,1.7,0.5c0.5,0.5,0.7,1.3,0.7,2.4l0,44.4l6.2,0
				l0-45.3C976.9,417.4,976.2,415.4,974.8,414.1z"/>
			<path class="st2" d="M991.2,412.3c-3.1-0.1-6.3-0.1-9.4-0.1l-0.1,0l0,53.1l9.5,0c5.3,0,8-3,8-8.9l0-35.1
				C999.2,415.5,996.5,412.5,991.2,412.3z M987.8,418.4c0.9,0,1.9,0,2.8,0c1.6,0,2.4,0.9,2.4,2.8l0,35.4c0,0.9-0.2,1.6-0.6,2
				c-0.4,0.4-1,0.6-1.7,0.6c-0.9,0-1.9,0-2.8,0L987.8,418.4z"/>
			<path class="st2" d="M1020.5,426.6c-0.7-3.1-2.3-6.7-4.7-10.9l-0.1-0.1c-0.5-0.9-1.2-1.3-2.3-1.6c-0.7-0.2-1.1-0.2-1.7-0.2
				c-1,0-1.9,0.3-2.4,1.1c-2.4,3.6-4,7-4.7,10.2c-0.7,3.1-1.1,8.3-1.1,15.6l0,24.8l6.3,0l0-22.3l5.6,0l0,22.2l6.2,0l0-23.8
				C1021.5,434.7,1021.2,429.7,1020.5,426.6z M1015.3,436.4l0,0.8l-5.6-0.1l0-1.1c0-6.4,0.7-11.2,2-14.1l0.3-0.8
				c0.1-0.2,0.3-0.3,0.5-0.3c0.2,0,0.4,0.2,0.5,0.4l0.3,0.8C1014.7,425.7,1015.3,430.5,1015.3,436.4z"/>
		</g>
		<g>
			<path class="st2" d="M947.4,473.2h1.8c1.9,0,3.3,1.2,3.3,3.2c0,2.2-1.3,3.3-3.3,3.3h-1.8V473.2z M948.3,478.9h0.9
				c1.5,0,2.4-0.8,2.4-2.5c0-1.5-1-2.4-2.3-2.4h-1V478.9z"/>
			<path class="st2" d="M954.8,473.2h3.5v0.8h-2.6v1.9h2.4v0.8h-2.4v2.2h2.6v0.8h-3.5V473.2z"/>
			<path class="st2" d="M963.5,474.2c-0.5-0.2-0.7-0.3-1.2-0.3c-0.5,0-1.1,0.2-1.1,0.9c0,1.3,2.7,1,2.7,3.1c0,1.4-1,2-2.3,2
				c-0.4,0-0.9-0.1-1.3-0.3l0.1-0.9c0.3,0.1,0.8,0.3,1.3,0.3c0.5,0,1.2-0.3,1.2-1.1c0-1.5-2.7-1.1-2.7-3.1c0-1.2,0.9-1.8,2-1.8
				c0.4,0,0.9,0.1,1.3,0.2L963.5,474.2z"/>
			<path class="st2" d="M966,473.2h0.9v6.6H966V473.2z"/>
			<path class="st2" d="M974.2,474.3c-0.4-0.3-0.9-0.5-1.7-0.5c-1.4,0-2.4,1.1-2.4,2.6c0,1.5,1.1,2.6,2.4,2.6c0.6,0,0.8-0.1,1-0.1
				v-2h-1.3v-0.8h2.2v3.4c-0.3,0.1-0.9,0.3-1.9,0.3c-2,0-3.3-1.3-3.3-3.4c0-2,1.4-3.4,3.3-3.4c0.9,0,1.3,0.1,1.8,0.3L974.2,474.3z"
				/>
			<path class="st2" d="M976.8,473.2h1.2l2.8,5.3h0v-5.3h0.9v6.6h-1.1l-2.8-5.4h0v5.4h-0.9V473.2z"/>
			<path class="st2" d="M990.4,474.2c-0.5-0.2-0.7-0.3-1.2-0.3c-0.5,0-1.1,0.2-1.1,0.9c0,1.3,2.7,1,2.7,3.1c0,1.4-1,2-2.3,2
				c-0.4,0-0.9-0.1-1.3-0.3l0.1-0.9c0.3,0.1,0.8,0.3,1.3,0.3c0.5,0,1.2-0.3,1.2-1.1c0-1.5-2.7-1.1-2.7-3.1c0-1.2,0.9-1.8,2-1.8
				c0.4,0,0.9,0.1,1.3,0.2L990.4,474.2z"/>
			<path class="st2" d="M994.1,474h-1.9v-0.8h4.8v0.8H995v5.7h-0.9V474z"/>
			<path class="st2" d="M1003.6,477c0,1.8-0.9,2.8-2.4,2.8c-1.5,0-2.4-1-2.4-2.8v-3.8h0.9v3.7c0,1.3,0.4,2.1,1.5,2.1
				c1.2,0,1.5-0.9,1.5-2.1v-3.7h0.9V477z"/>
			<path class="st2" d="M1006.1,473.2h1.8c1.9,0,3.3,1.2,3.3,3.2c0,2.2-1.3,3.3-3.3,3.3h-1.8V473.2z M1007,478.9h0.9
				c1.5,0,2.4-0.8,2.4-2.5c0-1.5-1-2.4-2.3-2.4h-1V478.9z"/>
			<path class="st2" d="M1013.5,473.2h0.9v6.6h-0.9V473.2z"/>
			<path class="st2" d="M1019.6,473.1c1.9,0,3,1.4,3,3.4c0,2-1.1,3.4-3,3.4s-3-1.4-3-3.4C1016.6,474.5,1017.7,473.1,1019.6,473.1z
				 M1019.6,479c1.4,0,2.1-1.3,2.1-2.6c0-1.3-0.7-2.6-2.1-2.6c-1.4,0-2.1,1.2-2.1,2.6C1017.5,477.8,1018.1,479,1019.6,479z"/>
		</g>
	</g>
</g>
</svg>
