<?xml version="1.0" encoding="utf-8"?>
<!-- Generator: Adobe Illustrator 24.1.2, SVG Export Plug-In . SVG Version: 6.00 Build 0)  -->
<svg version="1.1" id="Livello_1" xmlns="http://www.w3.org/2000/svg" xmlns:xlink="http://www.w3.org/1999/xlink" x="0px" y="0px"
	 viewBox="0 0 239.6 177.8" style="enable-background:new 0 0 239.6 177.8;" xml:space="preserve">
<style type="text/css">
	.st0{fill:#DFADE7;}
	.st1{fill:#FFDFFF;}
	.st2{fill:#814E9C;}
	.st3{fill:#8628BD;}
	.st4{opacity:0.4;}
	.st5{fill:#C29BC5;}
	.st6{fill:none;stroke:#89578C;stroke-width:1.9509;stroke-linecap:round;stroke-miterlimit:10;}
</style>
<g>
	<path class="st0" d="M209,14.7v4.2H67.3v-4.2c0-5.2,4.2-9.4,9.4-9.4h122.8C204.8,5.3,209,9.5,209,14.7z"/>
	<path class="st1" d="M209,18.9v122.6c0,5.2-4.2,9.4-9.4,9.4H76.7c-5.2,0-9.4-4.2-9.4-9.4V18.9H209z"/>
	<path class="st2" d="M193.9,62.7h-37.6c-0.7,0-1.3-0.6-1.3-1.3V34.7c0-0.7,0.6-1.3,1.3-1.3h37.6c0.7,0,1.3,0.6,1.3,1.3v26.7
		C195.3,62.1,194.7,62.7,193.9,62.7z"/>
	<rect x="78.7" y="70.9" class="st2" width="117.8" height="4.4"/>
	<rect x="78.7" y="80.3" class="st2" width="117.8" height="4.4"/>
	<rect x="78.4" y="90.1" class="st2" width="118.4" height="4.5"/>
	<rect x="78.4" y="99.8" class="st2" width="118.4" height="4.5"/>
	<rect x="78.4" y="109.5" class="st2" width="118.4" height="4.5"/>
	<circle class="st3" cx="77.3" cy="13.5" r="2.6"/>
	<circle class="st3" cx="86.7" cy="13.5" r="2.6"/>
	<circle class="st3" cx="96" cy="13.5" r="2.6"/>
</g>
<g class="st4">
	<path class="st5" d="M177.9,34.7v4.2H37.8v-4.2c0-5.2,4.2-9.4,9.3-9.4h121.5C173.8,25.3,177.9,29.5,177.9,34.7z"/>
	<path class="st5" d="M177.9,38.9v122.5c0,5.2-4.2,9.4-9.3,9.4H47.1c-5.1,0-9.3-4.2-9.3-9.4V38.9H177.9z"/>
</g>
<path class="st0" d="M174.2,34v4.2H32.5V34c0-5.2,4.2-9.4,9.4-9.4h122.8C170,24.6,174.2,28.8,174.2,34z"/>
<path class="st1" d="M174.2,38.3v122.6c0,5.2-4.2,9.4-9.4,9.4H41.9c-5.2,0-9.4-4.2-9.4-9.4V38.3H174.2z"/>
<circle class="st3" cx="41.2" cy="32.5" r="2.6"/>
<circle class="st3" cx="50.7" cy="32.5" r="2.6"/>
<circle class="st3" cx="60" cy="32.5" r="2.6"/>
<rect x="76.1" y="76.9" class="st2" width="86.2" height="4.4"/>
<rect x="76.1" y="86.3" class="st2" width="86.2" height="4.4"/>
<rect x="75.9" y="96.2" class="st2" width="86.7" height="4.5"/>
<rect x="75.9" y="105.9" class="st2" width="86.7" height="4.5"/>
<rect x="75.9" y="115.5" class="st2" width="86.7" height="4.5"/>
<line class="st6" x1="67.6" y1="47.2" x2="67.6" y2="157.1"/>
<g>
	<path class="st2" d="M74.8,64.6l10.1-3.9v2.4l-7.2,2.6l7.2,2.6v2.4l-10.1-3.9V64.6z"/>
	<path class="st2" d="M93.8,57.3h2l-5,13.1h-2L93.8,57.3z"/>
	<path class="st2" d="M110,66.9l-10.1,3.9v-2.4l7.2-2.6l-7.2-2.6v-2.4l10.1,3.9V66.9z"/>
</g>
<g>
	<path class="st2" d="M127.7,138.1l11.3-4.3v2.7l-8.1,2.9l8.1,2.9v2.7l-11.3-4.3V138.1z"/>
	<path class="st2" d="M149,129.9h2.3l-5.5,14.7h-2.3L149,129.9z"/>
	<path class="st2" d="M167.1,140.5l-11.3,4.3v-2.7l8.1-2.9l-8.1-2.9v-2.7l11.3,4.3V140.5z"/>
</g>
<rect x="41.3" y="52.1" class="st2" width="17.5" height="3.8"/>
<rect x="41.3" y="60.1" class="st2" width="17.5" height="3.8"/>
<rect x="41.3" y="68.5" class="st2" width="17.6" height="3.9"/>
<rect x="41.3" y="93.1" class="st2" width="17.6" height="3.9"/>
<rect x="41.3" y="101.4" class="st2" width="17.6" height="3.9"/>
</svg>
